<svg width="70" height="70" viewBox="0 0 70 70" fill="none" xmlns="http://www.w3.org/2000/svg">
<path d="M26.5596 29H14.7149V10.6807H18.5489V25.8262H26.5596V29ZM46.995 10.3633C49.7118 10.3633 51.8616 11.2139 53.4443 12.915C55.0354 14.6162 55.831 16.9268 55.831 19.8467C55.831 22.7581 55.0354 25.0645 53.4443 26.7656C51.8531 28.4668 49.7034 29.3174 46.995 29.3174C44.2782 29.3174 42.1285 28.4668 40.5458 26.7656C38.9547 25.0645 38.1591 22.7581 38.1591 19.8467C38.1591 16.9268 38.9547 14.6162 40.5458 12.915C42.1285 11.2139 44.2782 10.3633 46.995 10.3633ZM46.995 13.5625C45.497 13.5625 44.3036 14.1296 43.415 15.2637C42.5178 16.3978 42.0693 17.9255 42.0693 19.8467C42.0693 21.7594 42.5136 23.2829 43.4023 24.417C44.2909 25.5426 45.4885 26.1055 46.995 26.1055C48.4931 26.1055 49.6864 25.5426 50.5751 24.417C51.4638 23.2829 51.9081 21.7594 51.9081 19.8467C51.9081 17.9255 51.4638 16.3978 50.5751 15.2637C49.6864 14.1296 48.4931 13.5625 46.995 13.5625ZM15.4005 60V41.6807H27.3975V44.8418H19.2345V49.7549H26.6866V52.7891H19.2345V60H15.4005ZM45.5351 60V53.1572L39.162 41.6807H43.3388L47.4394 49.501H47.5282L51.6415 41.6807H55.7548L49.3691 53.1572V60H45.5351Z" fill="black"/>
<rect x="0.5" y="0.5" width="69" height="69" stroke="black"/>
</svg>
