<svg width="371" height="309" viewBox="0 0 371 309" fill="none" xmlns="http://www.w3.org/2000/svg">
<path d="M336.156 67.7328L23.2324 57.3712L16.2239 269.03L329.147 279.391L336.156 67.7328Z" fill="#535461"/>
<path d="M135.22 41.2562L6.68237 37L2.05017 176.894L130.588 181.151L135.22 41.2562Z" fill="#F2F2F2"/>
<path d="M45.9461 102.601C46.3593 102.741 46.8086 102.735 47.2173 102.582C47.6261 102.429 47.9691 102.139 48.1879 101.762C50.0583 99.0232 46.9046 95.3078 47.7205 92.0946C48.3742 89.5203 51.3757 88.0789 52.0646 85.5138C52.7339 83.0214 51.0214 80.1304 52.3175 77.898C53.3329 76.1491 55.7376 75.7596 57.7263 76.1378C59.7151 76.5159 61.5835 77.4563 63.599 77.6462C66.2847 77.8991 68.8892 76.801 71.5401 76.302C74.1909 75.8029 77.3931 76.1387 78.8681 78.3944C80.7621 81.2908 78.6153 85.1654 79.1952 88.5758C79.6557 91.2838 81.8368 93.5856 81.7944 96.3321C81.7793 97.3083 79.2372 96.4373 79.3417 97.408C79.4462 98.3787 78.2606 97.4878 79.2347 97.4052C79.6341 97.3214 79.9964 97.1128 80.2693 96.8097C80.5421 96.5066 80.7113 96.1246 80.7523 95.7191C80.8943 94.9182 82.4175 94.7001 82.427 93.8867C82.4491 91.9806 85.8549 93.3791 86.4831 91.579C87.9295 87.3822 87.8128 82.8052 86.1543 78.6871C85.2853 76.9984 84.6057 75.2191 84.1279 73.3815C83.7049 70.8391 84.5918 68.1543 83.837 65.6898C82.8197 62.3685 79.1492 60.571 75.7014 60.1165C72.2535 59.662 68.7181 60.1542 65.2953 59.5389C62.229 58.9877 59.2903 57.5554 56.1762 57.6457C52.4395 57.7541 49.115 60.0461 46.4409 62.6546C43.7668 65.2631 41.4714 68.2891 38.4593 70.4999C37.5401 71.0877 36.6872 71.7732 35.9156 72.5443C34.3601 74.3145 34.1227 76.9017 34.4619 79.2325C34.8011 81.5632 35.633 83.8034 35.9383 86.1388C36.2251 88.3335 36.0405 90.5601 36.1221 92.7719C36.0846 94.9989 36.6875 97.1899 37.8594 99.085C38.3683 99.825 39.0396 100.439 39.8222 100.881C40.6047 101.323 41.4779 101.581 42.3752 101.635C42.997 101.67 43.541 101.129 44.1642 101.295C44.9432 101.503 45.2599 102.259 45.9461 102.601Z" fill="#2F2E41"/>
<path d="M15.1478 178.098C15.9645 170.422 16.5782 164.687 16.5782 164.687L20.5277 155.245L31.4267 178.637L15.1478 178.098Z" fill="#575A89"/>
<path opacity="0.1" d="M15.1478 178.098C15.9645 170.422 16.5782 164.687 16.5782 164.687L20.5277 155.245L31.4267 178.637L15.1478 178.098Z" fill="black"/>
<path d="M44.6759 103.342C44.6759 103.342 54.6338 131.342 48.1992 136.399C41.7646 141.457 83.4192 128.672 83.4192 128.672L82.5505 125.019C82.5505 125.019 69.2158 119.307 76.3068 104.39C83.3977 89.4718 44.6759 103.342 44.6759 103.342Z" fill="#A0616A"/>
<path opacity="0.1" d="M44.6759 103.342C44.6759 103.342 54.6338 131.342 48.1992 136.399C41.7646 141.457 83.4192 128.672 83.4192 128.672L82.5505 125.019C82.5505 125.019 69.2158 119.307 76.3068 104.39C83.3977 89.4718 44.6759 103.342 44.6759 103.342Z" fill="black"/>
<path d="M59.7914 115.042C72.5294 115.464 83.1971 105.494 83.6183 92.773C84.0395 80.0522 74.0548 69.398 61.3168 68.9762C48.5788 68.5544 37.9111 78.5248 37.4899 91.2456C37.0687 103.966 47.0534 114.621 59.7914 115.042Z" fill="#A0616A"/>
<path d="M114.92 143.55C114.92 143.55 114.767 145.376 114.5 148.569C113.953 155.068 112.957 167.247 111.898 181.301L22.4908 178.341C20.258 175.139 18.4586 171.656 17.1395 167.983C16.785 166.919 16.5957 165.808 16.5783 164.687C16.3745 155.946 24.6054 144.03 30.1702 143.052C36.4716 141.937 48.7464 129.832 48.7464 129.832C48.7686 130.309 48.9117 130.772 49.1624 131.179C49.4131 131.586 49.7631 131.922 50.1796 132.157L50.1793 132.165C51.1195 132.69 52.1816 132.959 53.2588 132.944C57.1226 133.072 74.3767 125.802 79.9186 123.423C81.005 122.959 81.6384 122.68 81.6384 122.68C87.8421 125.601 94.2708 128.019 100.863 129.911C104.152 130.847 107.158 132.583 109.611 134.963C112.064 137.343 113.888 140.293 114.92 143.55Z" fill="#575A89"/>
<path d="M42.0684 100.166C42.4817 100.307 42.9309 100.3 43.3396 100.147C43.7484 99.9941 44.0914 99.7043 44.3102 99.3271C46.1807 96.5887 43.0269 92.8733 43.8428 89.6601C44.4965 87.0858 47.498 85.6445 48.1869 83.0794C48.8562 80.587 47.1437 77.6958 48.4398 75.4636C49.4552 73.7146 51.8599 73.3252 53.8486 73.7033C55.8374 74.0814 57.7058 75.0219 59.7213 75.2117C62.407 75.4647 65.0115 74.3666 67.6624 73.8675C70.3132 73.3685 73.5154 73.7043 74.9905 75.96C76.8845 78.8563 74.7376 82.7309 75.3176 86.1413C75.7781 88.8493 81.9773 90.9446 82.6054 89.1446C84.0518 84.9478 83.9351 80.3708 82.2767 76.2526C81.4077 74.564 80.728 72.7847 80.2502 70.947C79.8272 68.4047 80.7141 65.7198 79.9593 63.2553C78.9421 59.9341 75.2716 58.1366 71.8237 57.6821C68.3758 57.2276 64.8404 57.7197 61.4176 57.1044C58.3514 56.5533 55.4127 55.121 52.2985 55.2113C48.5618 55.3197 45.2374 57.6116 42.5632 60.2201C39.8891 62.8286 37.5937 65.8546 34.5816 68.0654C33.6624 68.6533 32.8096 69.3388 32.038 70.1098C30.4825 71.88 30.245 74.4673 30.5842 76.798C30.9234 79.1288 31.7554 81.3689 32.0606 83.7044C32.3475 85.8991 32.1628 88.1256 32.2444 90.3375C32.2069 92.5644 32.8098 94.7554 33.9817 96.6506C34.4906 97.3906 35.1619 98.0049 35.9445 98.4467C36.727 98.8886 37.6002 99.1463 38.4975 99.2002C39.1193 99.2352 39.6633 98.6942 40.2865 98.8606C41.0655 99.0686 41.3822 99.8244 42.0684 100.166Z" fill="#2F2E41"/>
<path opacity="0.1" d="M125.098 181.739L99.0055 180.875C97.5012 166.266 96.3652 151.008 96.3652 151.008L101.714 148.876L112.619 143.474C112.619 143.474 113.342 145.36 114.5 148.569C116.969 155.43 121.435 168.336 125.098 181.739Z" fill="black"/>
<path d="M127.4 181.814L97.9512 180.839C94.1139 164.784 90.384 147.347 90.384 147.347L101.863 139.493L114.92 143.55C114.92 143.55 122.025 162.138 127.4 181.814Z" fill="#575A89"/>
<path d="M281.695 85.3434L192.368 82.3856L192.166 88.4805L281.493 91.4383L281.695 85.3434Z" fill="#F2F2F2"/>
<path d="M71.446 194.866L39.8208 193.819L39.619 199.914L71.2442 200.961L71.446 194.866Z" fill="#F2F2F2"/>
<path d="M129.891 207.895L39.4539 204.901L39.252 210.996L129.689 213.99L129.891 207.895Z" fill="#F2F2F2"/>
<path d="M299.271 108.113L170.55 103.851L170.348 109.946L299.069 114.208L299.271 108.113Z" fill="#F2F2F2"/>
<path d="M298.702 125.29L169.982 121.027L169.78 127.122L298.5 131.384L298.702 125.29Z" fill="#F2F2F2"/>
<path d="M298.133 142.466L169.413 138.204L169.211 144.299L297.931 148.561L298.133 142.466Z" fill="#F2F2F2"/>
<path d="M297.564 159.642L168.844 155.38L168.642 161.475L297.363 165.737L297.564 159.642Z" fill="#F2F2F2"/>
<path d="M296.996 176.819L168.275 172.557L168.074 178.652L296.794 182.914L296.996 176.819Z" fill="#F2F2F2"/>
<path d="M296.427 193.995L167.707 189.733L167.505 195.828L296.225 200.09L296.427 193.995Z" fill="#F2F2F2"/>
<path d="M295.858 211.172L167.138 206.91L166.936 213.005L295.656 217.267L295.858 211.172Z" fill="#F2F2F2"/>
<path d="M331.966 286.715L275.085 240.864C274.754 240.533 274.361 240.27 273.928 240.091C273.496 239.913 273.032 239.821 272.564 239.822H270.147C274.977 233.63 277.264 225.829 276.542 218.01C275.821 210.19 272.144 202.94 266.263 197.738C260.381 192.536 252.737 189.774 244.89 190.015C237.043 190.256 229.583 193.481 224.032 199.034C218.48 204.587 215.255 212.049 215.015 219.899C214.774 227.748 217.535 235.394 222.735 241.278C227.936 247.161 235.184 250.838 243.001 251.56C250.819 252.282 258.618 249.994 264.807 245.163V247.579C264.806 248.047 264.898 248.511 265.077 248.943C265.256 249.376 265.518 249.769 265.849 250.101L322.73 295.952C323.059 296.284 323.451 296.548 323.882 296.728C324.314 296.907 324.777 297 325.244 297C325.712 297 326.175 296.907 326.607 296.728C327.038 296.548 327.43 296.284 327.759 295.952L331.951 291.763C332.62 291.094 332.997 290.188 333 289.242C333.003 288.296 332.631 287.387 331.966 286.715ZM245.818 239.822C242.062 239.822 238.39 238.708 235.268 236.62C232.145 234.533 229.711 231.567 228.274 228.096C226.836 224.625 226.46 220.805 227.193 217.121C227.926 213.436 229.734 210.052 232.39 207.395C235.046 204.739 238.429 202.929 242.113 202.197C245.797 201.464 249.615 201.84 253.085 203.277C256.554 204.715 259.52 207.15 261.607 210.274C263.693 213.397 264.807 217.07 264.807 220.827C264.809 223.322 264.319 225.793 263.366 228.099C262.412 230.404 261.013 232.499 259.25 234.264C257.486 236.028 255.392 237.428 253.087 238.382C250.782 239.337 248.312 239.827 245.818 239.826V239.822Z" fill="#6C63FF"/>
<path d="M331.966 286.715L275.085 240.864C274.754 240.533 274.361 240.27 273.928 240.091C273.496 239.913 273.032 239.821 272.564 239.822H270.147C274.977 233.63 277.264 225.829 276.542 218.01C275.821 210.19 272.144 202.94 266.263 197.738C260.381 192.536 252.737 189.774 244.89 190.015C237.043 190.256 229.583 193.481 224.032 199.034C218.48 204.587 215.255 212.049 215.015 219.899C214.774 227.748 217.535 235.394 222.735 241.278C227.936 247.161 235.184 250.838 243.001 251.56C250.819 252.282 258.618 249.994 264.807 245.163V247.579C264.806 248.047 264.898 248.511 265.077 248.943C265.256 249.376 265.518 249.769 265.849 250.101L322.73 295.952C323.059 296.284 323.451 296.548 323.882 296.728C324.314 296.907 324.777 297 325.244 297C325.712 297 326.175 296.907 326.607 296.728C327.038 296.548 327.43 296.284 327.759 295.952L331.951 291.763C332.62 291.094 332.997 290.188 333 289.242C333.003 288.296 332.631 287.387 331.966 286.715ZM245.818 239.822C242.062 239.822 238.39 238.708 235.268 236.62C232.145 234.533 229.711 231.567 228.274 228.096C226.836 224.625 226.46 220.805 227.193 217.121C227.926 213.436 229.734 210.052 232.39 207.395C235.046 204.739 238.429 202.929 242.113 202.197C245.797 201.464 249.615 201.84 253.085 203.277C256.554 204.715 259.52 207.15 261.607 210.274C263.693 213.397 264.807 217.07 264.807 220.827C264.809 223.322 264.319 225.793 263.366 228.099C262.412 230.404 261.013 232.499 259.25 234.264C257.486 236.028 255.392 237.428 253.087 238.382C250.782 239.337 248.312 239.827 245.818 239.826V239.822Z" fill="url(#paint0_linear)"/>
<defs>
<linearGradient id="paint0_linear" x1="56679.2" y1="60982" x2="56679.2" y2="6028.99" gradientUnits="userSpaceOnUse">
<stop stop-color="#808080" stop-opacity="0.25"/>
<stop offset="0.54" stop-color="#808080" stop-opacity="0.12"/>
<stop offset="1" stop-color="#808080" stop-opacity="0.1"/>
</linearGradient>
</defs>
</svg>
