<svg width="556" height="413" viewBox="0 0 556 413" fill="none" xmlns="http://www.w3.org/2000/svg">
<g clip-path="url(#clip0)">
<path d="M266.708 413C414.007 413 533.416 407.482 533.416 400.674C533.416 393.867 414.007 388.349 266.708 388.349C119.409 388.349 0 393.867 0 400.674C0 407.482 119.409 413 266.708 413Z" fill="#3F3D56"/>
<path d="M482.177 396.078C483.933 392.844 481.942 388.883 479.671 385.995C477.399 383.107 474.629 380.125 474.688 376.434C474.77 371.151 480.361 368.035 484.835 365.235C488.148 363.155 491.204 360.69 493.94 357.892C495.088 356.815 496.038 355.544 496.744 354.136C497.664 352.07 497.64 349.722 497.582 347.456C497.387 339.92 497.016 332.392 496.469 324.871" stroke="#3F3D56" stroke-width="4" stroke-miterlimit="10"/>
<path d="M504.965 324.472C504.9 323.093 504.49 321.752 503.774 320.573C503.058 319.394 502.059 318.414 500.867 317.722L499.028 321.373L499.081 316.959C497.823 316.581 496.494 316.512 495.204 316.757C493.914 317.001 492.702 317.553 491.669 318.365C490.636 319.177 489.813 320.226 489.268 321.424C488.724 322.621 488.475 323.932 488.541 325.247C488.644 327.426 489.606 329.475 491.216 330.944C492.013 331.671 492.945 332.233 493.959 332.599C494.973 332.965 496.049 333.127 497.125 333.076C498.202 333.025 499.258 332.763 500.233 332.303C501.208 331.843 502.083 331.195 502.808 330.396C503.534 329.597 504.095 328.662 504.46 327.646C504.825 326.63 504.987 325.551 504.936 324.472H504.965Z" fill="#FF6584"/>
<path d="M490.31 380.231C489.449 381.907 488.04 383.235 486.319 383.993C484.598 384.751 482.669 384.893 480.856 384.395C479.043 383.898 477.455 382.79 476.36 381.259C475.264 379.727 474.727 377.865 474.838 375.984C474.95 374.102 475.702 372.317 476.971 370.926C478.239 369.535 479.946 368.623 481.805 368.344C483.665 368.064 485.563 368.434 487.183 369.391C488.802 370.347 490.045 371.833 490.702 373.599L485.573 377.784L491.217 376.469C491.218 377.777 490.907 379.067 490.31 380.231Z" fill="#FF6584"/>
<path d="M486.252 364.214C485.174 364.266 484.096 364.104 483.08 363.737C482.065 363.371 481.131 362.806 480.334 362.077C479.536 361.348 478.89 360.468 478.433 359.488C477.975 358.508 477.715 357.447 477.668 356.366C477.603 355.077 477.846 353.791 478.376 352.616C478.868 351.515 479.595 350.535 480.506 349.746C481.416 348.957 482.488 348.378 483.646 348.049L483.605 351.448L485.467 347.75C487.645 347.648 489.774 348.418 491.386 349.889C492.998 351.361 493.961 353.414 494.063 355.597C494.164 357.781 493.397 359.915 491.929 361.531C490.461 363.147 488.412 364.112 486.234 364.214H486.252Z" fill="#FF6584"/>
<path d="M506.201 350.884C504.027 350.987 501.901 350.22 500.291 348.751C498.681 347.283 497.719 345.234 497.617 343.054C497.514 340.875 498.28 338.744 499.745 337.131C501.209 335.517 503.254 334.553 505.428 334.45C506.965 334.374 508.491 334.736 509.831 335.495L508.379 339.486L511.365 336.61C512.968 338.078 513.924 340.123 514.023 342.297C514.061 343.059 513.99 343.821 513.813 344.563C513.403 346.303 512.438 347.862 511.064 349.003C509.69 350.144 507.983 350.804 506.201 350.884Z" fill="#FF6584"/>
<path opacity="0.1" d="M503.859 326.644C501.962 326.855 500.117 327.448 498.214 327.565C496.311 327.682 494.221 327.225 493.015 325.74C492.365 324.941 492.043 323.932 491.492 323.063C490.974 322.251 490.264 321.58 489.425 321.109C488.93 322.148 488.657 323.279 488.626 324.431C488.595 325.582 488.805 326.727 489.244 327.791C489.682 328.856 490.339 329.816 491.172 330.61C492.004 331.403 492.994 332.013 494.077 332.398C495.159 332.784 496.311 332.937 497.456 332.847C498.601 332.758 499.715 332.428 500.726 331.88C501.736 331.331 502.62 330.575 503.32 329.662C504.02 328.749 504.521 327.699 504.79 326.579C504.473 326.591 504.163 326.614 503.859 326.644Z" fill="black"/>
<path opacity="0.1" d="M506.201 350.884C504.784 350.956 503.372 350.658 502.104 350.019C500.836 349.381 499.755 348.423 498.967 347.24C498.18 346.056 497.712 344.689 497.609 343.27C497.507 341.851 497.774 340.43 498.384 339.145C499.036 339.587 499.597 340.151 500.035 340.806C500.621 341.693 500.972 342.714 501.663 343.53C502.939 345.038 505.129 345.531 507.114 345.437C509.099 345.343 511.008 344.786 512.97 344.604C513.239 344.604 513.52 344.557 513.795 344.551C513.388 346.291 512.427 347.85 511.057 348.993C509.686 350.136 507.981 350.8 506.201 350.884Z" fill="black"/>
<path opacity="0.1" d="M486.252 364.214C485.174 364.266 484.096 364.104 483.08 363.737C482.065 363.37 481.131 362.806 480.334 362.077C479.536 361.348 478.89 360.468 478.433 359.488C477.975 358.508 477.715 357.447 477.668 356.366C477.603 355.077 477.846 353.791 478.376 352.616C479.058 353.062 479.653 353.629 480.133 354.288C480.771 355.192 481.169 356.231 481.89 357.065C483.277 358.614 485.608 359.16 487.71 359.107C489.812 359.054 491.703 358.561 493.729 358.409C493.229 360.029 492.243 361.456 490.905 362.495C489.567 363.533 487.942 364.134 486.252 364.214Z" fill="black"/>
<path opacity="0.1" d="M490.31 380.231C489.867 381.217 489.236 382.107 488.451 382.848C487.666 383.59 486.743 384.169 485.735 384.553C484.726 384.937 483.652 385.118 482.574 385.086C481.496 385.054 480.435 384.809 479.451 384.366C478.467 383.923 477.58 383.29 476.84 382.503C476.1 381.716 475.523 380.791 475.139 379.78C474.756 378.769 474.576 377.693 474.608 376.612C474.64 375.531 474.884 374.468 475.326 373.481C476 373.931 476.608 374.474 477.129 375.095C477.908 376.052 478.423 377.132 479.331 378.03C481.011 379.679 483.722 380.378 486.135 380.425C487.529 380.443 488.923 380.379 490.31 380.231Z" fill="black"/>
<path d="M469.787 392.351C469.787 392.351 476.269 392.152 478.224 390.755C480.18 389.358 488.178 387.691 488.688 389.933C489.197 392.175 498.437 401.085 491.112 401.12C483.787 401.156 474.096 399.946 472.146 398.773C470.197 397.599 469.787 392.351 469.787 392.351Z" fill="#656380"/>
<path opacity="0.2" d="M491.241 400.34C483.921 400.398 474.225 399.166 472.275 397.992C470.794 397.088 470.197 393.831 470.003 392.328H469.787C469.787 392.328 470.197 397.569 472.129 398.784C474.061 399.999 483.769 401.179 491.094 401.132C493.208 401.132 493.94 400.357 493.899 399.242C493.624 399.905 492.816 400.328 491.241 400.34Z" fill="black"/>
<path d="M113.833 377.971C109.582 370.083 114.418 360.422 119.945 353.39C125.473 346.359 132.242 339.046 132.095 330.083C131.884 317.206 118.253 309.605 107.362 302.779C99.281 297.713 91.8261 291.706 85.1534 284.883C82.4775 282.142 79.8836 279.219 78.3261 275.721C76.0777 270.685 76.1362 264.962 76.2826 259.445C76.751 241.054 77.6567 222.699 78.9995 204.378" stroke="#3F3D56" stroke-width="4" stroke-miterlimit="10"/>
<path d="M58.2893 203.375C58.4497 200.015 59.4495 196.749 61.1969 193.878C62.9443 191.006 65.3834 188.621 68.2901 186.94L72.7753 195.832L72.6406 185.068C76.7153 183.864 81.0661 183.99 85.0648 185.427C89.0636 186.864 92.5034 189.537 94.8875 193.061C97.2716 196.586 98.4767 200.778 98.3287 205.034C98.1807 209.289 96.6874 213.387 94.0643 216.737C91.4411 220.086 87.824 222.513 83.7352 223.667C79.6463 224.821 75.2973 224.643 71.3162 223.158C67.335 221.673 63.9277 218.958 61.5862 215.405C59.2447 211.852 58.0901 207.646 58.2893 203.392V203.375Z" fill="#FF6584"/>
<path d="M94.0183 339.286C96.0325 343.221 99.2869 346.379 103.276 348.27C107.265 350.16 111.765 350.677 116.077 349.74C120.389 348.803 124.271 346.465 127.121 343.089C129.972 339.712 131.629 335.487 131.838 331.069C131.977 328.292 131.533 325.516 130.532 322.922C129.069 319.118 126.486 315.85 123.126 313.553C119.765 311.256 115.787 310.038 111.72 310.062C107.653 310.085 103.689 311.349 100.356 313.685C97.0223 316.021 94.4769 319.319 93.058 323.14L105.571 333.341L91.805 330.13C91.7993 333.316 92.5584 336.456 94.0183 339.286Z" fill="#FF6584"/>
<path d="M103.908 300.302C108.82 300.527 113.644 298.933 117.46 295.825C121.276 292.716 123.818 288.309 124.603 283.443C125.388 278.577 124.36 273.591 121.715 269.435C119.071 265.28 114.994 262.244 110.261 260.906L110.366 269.176L105.858 260.179H105.805C100.496 259.93 95.3067 261.806 91.3777 265.393C87.4488 268.981 85.1024 273.985 84.8547 279.307C84.607 284.628 86.4783 289.83 90.057 293.769C93.6356 297.707 98.6284 300.059 103.937 300.308L103.908 300.302Z" fill="#FF6584"/>
<path d="M55.2739 267.862C58.3755 268.013 61.4699 267.44 64.3126 266.187C67.1554 264.934 69.6688 263.036 71.6544 260.643C73.64 258.25 75.0435 255.427 75.754 252.396C76.4646 249.366 76.4629 246.212 75.7489 243.182C75.0349 240.153 73.6282 237.331 71.64 234.94C69.6517 232.549 67.1362 230.654 64.292 229.404C61.4478 228.155 58.3529 227.585 55.2514 227.74C52.1499 227.895 49.1268 228.771 46.4207 230.297L49.9338 240.023L42.6792 232.997C40.7398 234.766 39.1675 236.901 38.0523 239.28C36.937 241.659 36.3007 244.235 36.1798 246.861C36.0868 248.719 36.2583 250.58 36.6892 252.39C37.6851 256.645 40.0388 260.458 43.3929 263.25C46.747 266.042 50.9184 267.662 55.2739 267.862Z" fill="#FF6584"/>
<path opacity="0.1" d="M60.9827 208.727C65.6084 209.238 70.1053 210.676 74.7427 210.964C79.38 211.251 84.48 210.142 87.4135 206.526C88.9944 204.578 89.7849 202.113 91.1199 199.988C92.3848 198.008 94.1188 196.373 96.1671 195.228C97.4427 197.773 98.1636 200.561 98.282 203.407C98.4005 206.253 97.9137 209.091 96.8542 211.734C95.7946 214.377 94.1864 216.763 92.1363 218.736C90.0862 220.708 87.6411 222.22 84.9632 223.173C82.2854 224.125 79.4361 224.496 76.6044 224.26C73.7728 224.025 71.0235 223.188 68.5391 221.806C66.0547 220.423 63.8919 218.527 62.1944 216.243C60.497 213.959 59.3035 211.339 58.6933 208.557C59.4721 208.592 60.2333 208.645 60.9827 208.727Z" fill="black"/>
<path opacity="0.1" d="M55.2739 267.862C58.7263 268.021 62.1613 267.283 65.2455 265.72C68.3296 264.156 70.9582 261.82 72.876 258.938C74.7938 256.056 75.9357 252.725 76.191 249.27C76.4462 245.815 75.8061 242.353 74.3328 239.219C72.7421 240.291 71.374 241.663 70.3044 243.257C68.8757 245.417 68.015 247.912 66.3345 249.895C63.2136 253.57 57.8853 254.773 53.0488 254.556C48.2124 254.338 43.5457 252.953 38.7327 252.513C38.0652 252.454 37.386 252.407 36.7126 252.39C37.7074 256.641 40.0576 260.451 43.407 263.243C46.7564 266.035 50.9225 267.657 55.2739 267.862Z" fill="black"/>
<path opacity="0.1" d="M103.908 300.302C107.327 300.463 110.73 299.743 113.792 298.211C116.854 296.679 119.474 294.386 121.401 291.551C123.328 288.715 124.499 285.432 124.8 282.015C125.102 278.597 124.525 275.159 123.125 272.029C121.475 273.127 120.04 274.52 118.891 276.137C117.334 278.338 116.362 280.874 114.541 282.905C111.163 286.679 105.483 288.011 100.36 287.888C95.4001 287.782 90.6222 286.561 85.692 286.18C86.9126 290.125 89.3162 293.597 92.5756 296.124C95.8349 298.651 99.7919 300.11 103.908 300.302Z" fill="black"/>
<path opacity="0.1" d="M94.0182 339.286C96.0325 343.221 99.2869 346.379 103.276 348.27C107.265 350.16 111.765 350.677 116.077 349.74C120.389 348.803 124.271 346.465 127.121 343.089C129.972 339.712 131.629 335.487 131.838 331.069C131.977 328.292 131.533 325.516 130.532 322.922C128.883 324.008 127.404 325.331 126.14 326.849C124.237 329.197 122.978 331.815 120.777 333.986C116.678 338.013 110.068 339.68 104.183 339.856C100.787 339.867 97.3923 339.677 94.0182 339.286Z" fill="black"/>
<path d="M252.491 389.699L175.202 405.546L173.445 405.37L105.524 398.503V312.223L188.669 298.136L248.978 305.179L248.996 305.561L249.002 305.749L252.491 389.699Z" fill="#6C63FF"/>
<path opacity="0.1" d="M252.492 389.699L175.202 405.546L173.445 405.37V316.918L248.996 305.561L252.492 389.699Z" fill="black"/>
<path opacity="0.05" d="M249.002 305.749L248.978 305.766L173.445 316.918L105.524 312.222L188.669 298.136L248.978 305.179L248.996 305.561L249.002 305.749Z" fill="black"/>
<path d="M337.393 393.22L260.103 409.067L258.347 408.891L190.425 402.024V315.744L273.57 301.658L333.88 308.701L333.897 309.082L333.903 309.27L337.393 393.22Z" fill="#3F3D56"/>
<path opacity="0.1" d="M337.393 393.22L260.103 409.067L258.347 408.891V320.44L333.897 309.082L337.393 393.22Z" fill="black"/>
<path opacity="0.05" d="M333.903 309.27L333.88 309.288L258.347 320.44L190.425 315.744L273.57 301.658L333.88 308.701L333.897 309.082L333.903 309.27Z" fill="black"/>
<path d="M284.11 308.701L206.82 324.548L205.064 324.372L137.142 317.505V231.225L220.287 217.138L280.597 224.182L280.614 224.563L280.62 224.751L284.11 308.701Z" fill="#3F3D56"/>
<path opacity="0.1" d="M284.11 308.701L206.82 324.548L205.064 324.372V235.92L280.614 224.563L284.11 308.701Z" fill="black"/>
<path opacity="0.05" d="M280.62 224.751L280.597 224.769L205.064 235.92L137.142 231.225L220.287 217.138L280.597 224.182L280.614 224.563L280.62 224.751Z" fill="black"/>
<path d="M328.025 312.316L287.688 320.592L286.768 320.498L251.32 316.912V271.882L294.714 264.528L326.192 268.208L326.204 268.407V268.501L328.025 312.316Z" fill="#3F3D56"/>
<path opacity="0.1" d="M328.025 312.316L287.688 320.592L286.768 320.498V274.336L326.204 268.407L328.025 312.316Z" fill="black"/>
<path opacity="0.05" d="M326.204 268.501L326.192 268.513L286.768 274.336L251.32 271.882L294.714 264.528L326.192 268.208L326.204 268.407V268.501Z" fill="black"/>
<path d="M219.702 224.862L179.365 233.132L178.446 233.044L142.998 229.458V184.428L186.391 177.074L217.869 180.754L217.881 180.953V181.047L219.702 224.862Z" fill="#3F3D56"/>
<path opacity="0.1" d="M219.702 224.862L179.365 233.132L178.446 233.044V186.882L217.881 180.953L219.702 224.862Z" fill="black"/>
<path opacity="0.05" d="M217.881 181.047L217.869 181.059L178.446 186.882L142.998 184.428L186.391 177.074L217.869 180.754L217.881 180.953V181.047Z" fill="black"/>
<path d="M290.551 223.102L250.214 231.372L249.294 231.284L213.847 227.697V182.667L257.24 175.313L288.718 178.993L288.73 179.193V179.287L290.551 223.102Z" fill="#6C63FF"/>
<path opacity="0.1" d="M290.551 223.102L250.214 231.372L249.294 231.284V185.121L288.73 179.193L290.551 223.102Z" fill="black"/>
<path opacity="0.05" d="M288.73 179.287L288.718 179.298L249.294 185.121L213.847 182.667L257.24 175.313L288.718 178.993L288.73 179.193V179.287Z" fill="black"/>
<path d="M311.63 177.907L271.293 186.177L270.374 186.089L234.926 182.503V137.473L278.319 130.119L309.797 133.799L309.809 133.998V134.092L311.63 177.907Z" fill="#3F3D56"/>
<path opacity="0.1" d="M311.63 177.907L271.293 186.177L270.373 186.089V139.926L309.809 133.998L311.63 177.907Z" fill="black"/>
<path opacity="0.05" d="M309.809 134.092L309.797 134.104L270.374 139.926L234.926 137.473L278.319 130.119L309.797 133.799L309.809 133.998V134.092Z" fill="black"/>
<path d="M339.103 85.8516C338.675 89.6667 335.771 92.7423 334.694 96.4166C333.078 101.963 335.865 107.921 339.706 112.264C342.801 115.715 346.549 118.516 350.733 120.505C354.916 122.494 359.451 123.631 364.076 123.85C365.434 123.967 366.803 123.818 368.104 123.41C369.263 122.937 370.307 122.221 371.166 121.309C374.047 118.403 375.599 114.383 376.214 110.327C376.828 106.271 376.594 102.145 376.354 98.0541C376.354 97.2075 376.199 96.368 375.897 95.5772C375.505 94.8251 374.966 94.1603 374.311 93.6227C372.234 91.7096 369.945 90.0416 367.489 88.6513C366.435 88.0644 365.305 87.4775 364.632 86.4621C364.17 85.6535 363.869 84.7623 363.748 83.8384L362.992 79.9881C362.859 78.878 362.481 77.8114 361.886 76.8656C360.557 75.0696 358.01 74.823 355.779 74.735L347.581 74.4122C345.034 74.3124 341.685 73.5787 339.196 74.0835C336.854 74.5472 337.645 76.6954 338.066 78.644C338.676 81.0008 339.024 83.4181 339.103 85.8516Z" fill="#FFC0C6"/>
<path opacity="0.1" d="M339.103 85.8516C338.675 89.6667 335.771 92.7423 334.694 96.4166C333.078 101.963 335.865 107.921 339.706 112.264C342.801 115.715 346.549 118.516 350.733 120.505C354.916 122.494 359.451 123.631 364.076 123.85C365.434 123.967 366.803 123.818 368.104 123.41C369.263 122.937 370.307 122.221 371.166 121.309C374.047 118.403 375.599 114.383 376.214 110.327C376.828 106.271 376.594 102.145 376.354 98.0541C376.354 97.2075 376.199 96.368 375.897 95.5772C375.505 94.8251 374.966 94.1603 374.311 93.6227C372.234 91.7096 369.945 90.0416 367.489 88.6513C366.435 88.0644 365.305 87.4775 364.632 86.4621C364.17 85.6535 363.869 84.7623 363.748 83.8384L362.992 79.9881C362.859 78.878 362.481 77.8114 361.886 76.8656C360.557 75.0696 358.01 74.823 355.779 74.735L347.581 74.4122C345.034 74.3124 341.685 73.5787 339.196 74.0835C336.854 74.5472 337.645 76.6954 338.066 78.644C338.676 81.0008 339.024 83.4181 339.103 85.8516Z" fill="black"/>
<path d="M391.162 257.684L387.684 295.906C386.776 305.931 385.851 315.996 384.071 325.892C383.486 329.302 382.736 332.695 381.881 336.058C379.504 345.396 376.055 354.523 374.943 364.096C374.908 364.372 374.879 364.683 374.849 364.936C374.621 367.049 374.422 369.185 373.678 371.157C373.093 372.619 372.267 373.951 371.664 375.395C370.493 378.283 370.306 381.475 370.159 384.604C365.938 382.215 361.316 380.624 356.522 379.908C354.18 379.562 351.633 379.321 350.081 377.561C348.325 375.647 348.53 372.718 348.823 370.148C349.744 362.165 350.661 354.187 351.575 346.212C351.879 342.781 352.467 339.381 353.331 336.046C353.647 334.937 354.028 333.845 354.414 332.754C354.947 331.251 355.486 329.748 355.89 328.205C356.45 325.725 356.838 323.209 357.049 320.674C357.992 312.645 359.128 304.633 360.123 296.61L360.176 296.187C361.669 284.026 362.805 271.806 362.477 259.556C362.43 257.743 362.354 255.929 362.237 254.11C362.073 251.474 361.833 250.077 363.994 248.428C366.4 246.609 369.568 245.335 372.32 244.143C373.801 243.498 390.114 237.687 390.471 238.967C391.228 241.684 391.622 244.491 391.642 247.313C391.675 250.776 391.515 254.239 391.162 257.684Z" fill="#605D82"/>
<path opacity="0.1" d="M384.071 325.892C383.486 329.302 382.736 332.695 381.881 336.058C379.504 345.396 376.055 354.523 374.943 364.096C374.908 364.372 374.879 364.683 374.849 364.935C367.577 354.523 361.452 343.324 354.356 332.801C354.889 331.298 355.427 329.795 355.831 328.252C356.414 325.758 356.82 323.226 357.049 320.674C357.992 312.645 359.128 304.633 360.123 296.61L360.176 296.187C360.587 297.89 361.176 299.544 361.933 301.123C366.699 310.831 378.023 315.738 383.562 325.029C383.745 325.319 383.915 325.607 384.071 325.892Z" fill="black"/>
<path d="M325.062 240.54C325.302 248.322 326.543 256.041 327.785 263.73L330.343 279.577C331.743 288.264 333.207 297.121 337.305 304.897C340.373 310.72 344.788 315.685 348.787 320.903C358.613 333.734 365.996 348.272 375.312 361.478C378.023 365.317 381.893 369.473 386.513 368.668C389.546 368.146 391.748 365.61 394.125 363.662C396.935 361.361 400.32 359.677 402.533 356.789C404.746 353.901 405.18 349.112 402.182 347.057C401.157 346.359 399.91 346.095 398.75 345.649C394.107 343.888 391.098 339.333 389.189 334.732C387.28 330.13 386.115 325.194 383.568 320.915C378.029 311.624 366.699 306.717 361.933 297.003C359.263 291.568 359.005 285.264 358.806 279.236L358.285 263.794C358.226 262.104 358.185 260.349 358.87 258.805C360.691 254.697 366.195 254.309 370.657 253.787C375.717 253.195 380.618 251.645 385.102 249.22C387.672 247.829 390.178 246.057 391.543 243.474C392.796 241.126 392.965 238.362 393.112 235.697L394.658 207.706C394.792 205.3 394.909 202.805 394.072 200.551C391.947 194.882 384.803 193.027 378.766 193.297C367.536 193.802 357.172 198.644 346.562 201.919C343.933 202.729 341.293 203.457 338.582 204.003C336.24 204.478 333.312 204.284 331.063 205.047C327.035 206.409 327.135 215.248 326.567 218.911C325.395 226.058 324.891 233.299 325.062 240.54Z" fill="#605D82"/>
<path d="M384.991 369.854C385.98 370.858 386.302 372.325 386.56 373.71C387.991 381.398 388.736 389.198 388.785 397.018C388.721 397.747 388.865 398.48 389.201 399.131C389.481 399.516 389.859 399.82 390.296 400.011C393.159 401.379 396.479 399.471 398.868 397.376C403.288 393.496 407.03 388.284 407.282 382.397C407.346 380.883 407.176 379.351 407.44 377.854C407.826 375.635 409.12 373.704 410.256 371.768C412.2 368.466 413.771 364.958 414.94 361.308C415.374 359.935 415.666 358.209 414.589 357.252C414.212 356.952 413.78 356.727 413.318 356.589L400.378 351.776C399.254 351.36 396.467 358.538 396.028 359.324C394.945 361.244 393.867 362.33 391.695 362.776C389.523 363.222 386.841 362.576 384.768 363.685C381.255 365.558 383.006 367.853 384.991 369.854Z" fill="#535070"/>
<path d="M365.036 374.285C364.796 373.806 364.461 373.381 364.052 373.035C363.454 372.654 362.773 372.422 362.067 372.36C359.608 371.938 356.692 371.662 354.988 373.499C353.396 375.219 353.671 378.018 352.342 379.955C351.92 380.542 351.346 381.071 350.983 381.716C350.532 382.704 350.331 383.789 350.398 384.874C350.327 387.861 350.257 390.861 350.468 393.842C350.638 396.343 351.053 398.966 352.617 400.927C355.123 404.073 359.643 404.525 363.648 404.724L366.898 404.894C367.791 404.999 368.697 404.915 369.556 404.648C370.089 404.402 370.566 404.052 370.961 403.617C371.355 403.183 371.658 402.673 371.851 402.118C373.544 397.904 370.868 393.367 369.217 389.141C367.314 384.275 367.653 378.881 365.036 374.285Z" fill="#535070"/>
<path d="M338.166 64.3403C338.124 63.9131 338.187 63.4821 338.347 63.0843C338.822 62.2449 340.063 62.4973 341 62.7086C344.765 63.6595 348.735 62.7967 352.617 63.0197C356.499 63.2427 360.867 65.1855 361.646 69.0006C364.462 67.0026 366.889 64.504 368.807 61.6286C369.884 60.0146 370.821 58.1657 370.674 56.2288C370.464 53.435 368.127 51.3455 365.99 49.5729L359.549 44.2905C358.701 43.5103 357.722 42.8864 356.657 42.4475C355.17 41.9368 353.542 42.1833 351.973 42.1833C347.288 42.1833 342.265 40.041 338.09 42.1833C336.333 43.0814 335.027 44.625 333.763 46.1276L328.007 52.9596C327.571 53.3951 327.253 53.9343 327.082 54.5267C326.918 55.3601 327.345 56.1819 327.498 57.0212C327.767 58.5472 327.111 60.1789 327.615 61.6463C328.452 64.0762 331.403 64.4225 333.207 65.8194C333.874 66.3359 334.928 68.1026 335.73 68.0791C337.141 68.0498 338.125 65.4672 338.166 64.3403Z" fill="#3F3D56"/>
<path d="M347.933 84.4899C358.119 84.4899 366.377 76.2123 366.377 66.0014C366.377 55.7904 358.119 47.5128 347.933 47.5128C337.746 47.5128 329.488 55.7904 329.488 66.0014C329.488 76.2123 337.746 84.4899 347.933 84.4899Z" fill="#FFC0C6"/>
<path d="M352.254 106.459C351.629 104.667 350.452 103.12 348.894 102.042C347.335 100.964 345.475 100.41 343.582 100.461C343.039 100.564 342.477 100.492 341.978 100.255C341.695 100.038 341.468 99.7566 341.316 99.4334C340.198 97.41 339.297 95.2733 338.628 93.0593C338.336 92.0791 337.932 90.9228 336.942 90.6704C336.146 90.465 335.332 90.9815 334.799 91.6095C334.327 92.2835 333.815 92.9283 333.265 93.5406C330.923 95.6183 326.824 93.7225 324.371 95.6301C323.967 95.9412 323.633 96.3403 323.2 96.6279C322.778 96.8854 322.323 97.0829 321.847 97.2148C317.085 98.7679 312.416 100.596 307.865 102.691C309.504 112.575 311.179 122.647 315.02 131.891C316.847 136.293 318.914 140.607 320.378 145.144C323.621 155.199 323.762 165.957 323.803 176.528C323.803 183.759 323.803 191.143 321.461 197.986C320.934 199.536 320.29 201.074 320.143 202.682C319.997 204.29 320.477 206.11 321.795 207.072C322.557 207.577 323.432 207.885 324.342 207.97C328.388 208.557 332.463 207.489 336.444 206.562C347.119 204.085 358.009 202.664 368.871 201.279L387.081 198.931C388.387 198.84 389.666 198.508 390.852 197.951C394.183 196.126 394.5 191.102 392.427 187.909C391.437 186.377 390.038 185.121 389.2 183.501C388.363 181.881 388.299 179.604 389.733 178.482C392.661 176.193 391.783 171.95 391.923 168.24C392.314 157.863 392.261 147.494 391.765 137.133C391.616 134.984 391.581 132.829 391.66 130.676C391.865 127.025 392.766 123.451 393.668 119.9L399.201 98.0659C397.755 95.7768 394.986 94.3212 392.368 93.6638C389.751 93.0065 387.016 92.8128 384.434 92.0087C379.165 90.3652 374.433 86.198 368.912 86.5853C368.493 86.5928 368.081 86.693 367.706 86.8788C366.464 87.589 366.658 89.385 366.582 90.8172C366.406 93.9925 364.075 96.6396 361.511 98.5002C358.946 100.361 356.007 101.711 353.647 103.83C353.237 104.139 352.9 104.535 352.66 104.989C352.419 105.444 352.28 105.945 352.254 106.459Z" fill="#3F3D56"/>
<path d="M279.174 127.172C277.952 127.968 276.654 128.639 275.298 129.174C274.01 129.684 272.634 130.089 271.58 130.981C271.058 131.435 270.62 131.978 270.286 132.584C269.662 133.694 269.346 134.951 269.372 136.225C269.398 137.498 269.765 138.742 270.433 139.825C271.102 140.909 272.048 141.792 273.174 142.384C274.299 142.976 275.563 143.254 276.832 143.19C278.524 143.102 280.123 142.415 281.674 141.74L294.685 136.064C296.886 135.108 299.263 133.992 300.306 131.821C300.425 131.617 300.471 131.379 300.435 131.146C300.334 130.89 300.142 130.681 299.896 130.559C296.964 128.647 294.399 126.221 292.325 123.398C291.792 122.67 291.154 120.956 290.381 120.516C287.629 118.984 281.381 125.74 279.174 127.172Z" fill="#FFC0C6"/>
<path d="M418.249 122.565L423.044 128.058C424.075 129.232 425.105 130.406 426.042 131.674C428.347 134.857 430.196 138.348 431.534 142.045C432.577 144.786 433.443 147.709 433.08 150.62C432.837 152.113 432.434 153.575 431.88 154.981C431.001 157.685 429.911 160.315 428.618 162.846C427.539 164.767 426.32 166.605 424.97 168.346C421.256 173.28 417.192 177.938 412.809 182.286C411.17 183.912 410.467 186.547 409.77 188.742C408.453 192.798 405.32 195.962 402.293 198.955C401.319 199.987 400.242 200.915 399.078 201.725C397.336 202.853 395.297 203.433 393.223 203.392C392.318 203.397 391.422 203.211 390.594 202.846C388.521 201.86 387.467 199.46 387.251 197.171C387.059 195.091 387.406 192.996 388.258 191.09C391.01 184.98 398.077 182.333 403.072 177.872C405.999 175.26 408.242 171.973 410.455 168.728C411.954 166.699 413.206 164.498 414.185 162.171C415.298 159.184 414.864 155.651 415.842 152.622C416.252 151.336 417.013 150.18 417.429 148.907C417.845 147.633 417.985 146.124 417.206 145.027C416.623 144.325 415.877 143.777 415.034 143.43C411.843 141.81 408.271 139.721 407.662 136.182C407.418 134.222 407.929 132.242 409.091 130.647C410.246 129.072 411.598 127.652 413.114 126.421C414.501 125.165 416.849 123.774 418.249 122.565Z" fill="#FFC0C6"/>
<path d="M276.094 134.838C275.251 133.124 274.191 131.375 272.481 130.524C271.649 130.164 270.753 129.978 269.847 129.978C268.94 129.978 268.044 130.164 267.212 130.524C265.555 131.242 264.003 132.182 262.598 133.317L258.464 136.375C257.527 136.992 256.698 137.759 256.01 138.647C255.355 139.724 254.921 140.921 254.734 142.169C254.148 145.027 253.674 147.967 254.084 150.861C254.74 155.557 257.55 159.618 260.642 163.187C262.574 165.405 264.963 167.648 267.903 167.747C269.173 167.788 270.584 167.284 271.111 166.127C271.295 165.668 271.392 165.178 271.398 164.684C271.714 159.471 269.852 154.383 267.686 149.634C267.1 148.343 266.468 147.005 266.515 145.59C266.497 145.35 266.559 145.111 266.691 144.91C266.876 144.714 267.125 144.592 267.393 144.563C270.362 143.976 275.479 146.289 277.558 142.984C278.905 140.801 277.054 136.78 276.094 134.838Z" fill="#FFC0C6"/>
<path d="M337.194 58.5237C337.157 58.0961 337.221 57.6658 337.381 57.2677C337.856 56.4225 339.097 56.6807 340.034 56.892C343.799 57.8429 347.769 56.9801 351.651 57.2031C355.533 57.4262 359.895 59.3689 360.68 63.184C363.493 61.1828 365.92 58.6848 367.841 55.8121C368.918 54.1921 369.855 52.3433 369.708 50.4064C369.498 47.6125 367.155 45.523 365.024 43.7563L358.583 38.4739C357.737 37.6938 356.76 37.0699 355.697 36.6309C354.204 36.1203 352.582 36.3668 351.012 36.3668C346.328 36.3668 341.304 34.2244 337.13 36.3668C335.373 37.2648 334.067 38.8084 332.803 40.311L327.041 47.143C326.608 47.5795 326.292 48.1185 326.122 48.7101C325.958 49.5436 326.385 50.3653 326.537 51.2046C326.807 52.7306 326.151 54.3623 326.654 55.8238C327.492 58.2596 330.443 58.6059 332.246 60.0028C332.914 60.5193 333.968 62.286 334.77 62.2625C336.158 62.2332 337.141 59.6507 337.194 58.5237Z" fill="#3F3D56"/>
<path d="M298.022 109.188C297.279 109.672 296.625 110.282 296.09 110.99C295.417 112.017 295.276 113.338 294.696 114.395C293.455 116.707 290.545 117.535 288.736 119.43C288.442 119.69 288.238 120.035 288.15 120.417C288.139 120.933 288.311 121.436 288.636 121.837L297.384 135.618C300.312 135.877 303.087 134.045 306.003 134.292C307.086 134.38 308.204 134.755 309.247 134.433C309.992 134.1 310.69 133.672 311.325 133.159C313.082 132.056 315.377 131.926 316.835 130.477C318.293 129.027 318.416 126.896 318.399 124.918C318.425 123.202 318.25 121.488 317.877 119.812C316.589 114.53 312.555 110.456 310.025 105.772C308.79 103.489 308.123 102.157 305.517 103.724C302.911 105.291 300.487 107.381 298.022 109.188Z" fill="#3F3D56"/>
<path d="M404.243 102.221C405.887 103.291 407.37 104.592 408.646 106.083C409.975 107.803 410.73 109.916 412.013 111.677C413.295 113.438 414.94 114.706 416.346 116.279C418.483 118.662 419.929 121.561 421.346 124.443C417.877 128.967 414.097 133.243 410.034 137.238C409.58 137.773 408.982 138.164 408.312 138.365C407.858 138.414 407.398 138.349 406.975 138.176C406.552 138.003 406.178 137.727 405.888 137.373C405.256 136.716 404.811 135.894 404.208 135.207C402.787 133.738 400.893 132.821 398.862 132.619C396.848 132.422 394.821 132.393 392.801 132.531C392.358 132.584 391.909 132.508 391.507 132.314C391.208 132.108 390.967 131.829 390.805 131.504C388.463 127.466 389.195 122.395 390.032 117.781L391.947 107.216C392.226 105.199 392.763 103.226 393.545 101.347C394.271 99.7915 395.887 97.1502 397.89 97.6198C399.892 98.0893 402.551 101.001 404.243 102.221Z" fill="#3F3D56"/>
<path d="M237.268 179.668L196.931 187.938L196.011 187.85L160.564 184.264V139.234L203.957 131.879L235.435 135.56L235.447 135.759V135.853L237.268 179.668Z" fill="#6C63FF"/>
<path opacity="0.1" d="M237.268 179.668L196.931 187.938L196.011 187.85V141.687L235.447 135.759L237.268 179.668Z" fill="black"/>
<path opacity="0.05" d="M235.447 135.853L235.435 135.865L196.011 141.687L160.564 139.234L203.957 131.879L235.435 135.56L235.447 135.759V135.853Z" fill="black"/>
<path d="M258.347 135.061L218.01 143.337L217.09 143.243L181.643 139.656V94.6264L225.036 87.272L256.514 90.9521L256.526 91.1517V91.2456L258.347 135.061Z" fill="#3F3D56"/>
<path opacity="0.1" d="M258.347 135.061L218.01 143.337L217.09 143.243V97.0798L256.526 91.1517L258.347 135.061Z" fill="black"/>
<path opacity="0.05" d="M256.526 91.2456L256.514 91.2573L217.09 97.0798L181.643 94.6264L225.036 87.272L256.514 90.9521L256.526 91.1517V91.2456Z" fill="black"/>
</g>
<defs>
<clipPath id="clip0">
<rect width="556" height="413" fill="white"/>
</clipPath>
</defs>
</svg>
