<svg width="564" height="655" viewBox="0 0 564 655" fill="none" xmlns="http://www.w3.org/2000/svg">
<path d="M103.771 318.868H76.7593V326.558L105.756 325.069L103.771 318.868Z" fill="#AAABB0"/>
<path d="M109.221 203.366H82.2093V211.062L111.206 209.574L109.221 203.366Z" fill="#AAABB0"/>
<path d="M148.872 337.723C151.611 337.723 153.831 335.502 153.831 332.762C153.831 330.022 151.611 327.801 148.872 327.801H110.708C107.969 327.801 105.749 330.022 105.749 332.762C105.749 335.502 107.969 337.723 110.708 337.723H148.872Z" fill="#AAABB0"/>
<path d="M159.534 210.437C162.273 210.437 164.493 208.216 164.493 205.476C164.493 202.736 162.273 200.515 159.534 200.515H110.715C107.976 200.515 105.756 202.736 105.756 205.476C105.756 208.216 107.976 210.437 110.715 210.437H159.534Z" fill="#AAABB0"/>
<path d="M441.567 350.385C441.567 350.385 445.783 360.307 441.567 361.796C437.351 363.285 400.92 364.029 400.92 364.029V354.598L441.567 350.385Z" fill="#AAABB0"/>
<path d="M441.567 241.708C441.567 241.708 445.783 231.778 441.567 230.289C437.351 228.801 400.92 228.056 400.92 228.056V237.487L441.567 241.708Z" fill="#AAABB0"/>
<path d="M477.754 243.189L447.515 241.7V248.4H478.497L477.754 243.189Z" fill="#AAABB0"/>
<path d="M400.92 237.487L444.541 239.475C444.541 239.475 454.207 238.73 451.233 262.297C448.259 285.863 442.311 354.851 442.311 354.851H400.92V237.487Z" fill="#33323D"/>
<path d="M171.177 331.776L104.514 328.054C104.514 328.054 74.2761 273.462 103.027 207.214L173.162 213.169L171.177 331.776Z" fill="#33323D"/>
<path d="M433.641 279.916L390.518 281.152V358.074L447.515 353.608L433.641 279.916Z" fill="#444053"/>
<path d="M199.683 287.732V215.276L107.987 215.276L107.987 287.732H199.683Z" fill="#4C4981"/>
<path d="M162.255 261.061C162.255 261.061 170.433 271.482 167.958 273.217C165.482 274.951 154.82 267.024 156.062 263.793C157.303 260.563 162.255 261.061 162.255 261.061Z" fill="#FFB9B9"/>
<path d="M403 503L403 137L165 137L165 503L403 503Z" fill="#504F60"/>
<path d="M479.486 237.733C479.486 237.733 514.185 234.011 518.393 237.733C522.602 241.455 562.513 303.981 515.672 361.796C515.672 361.796 515.419 367.252 503.033 366.262C495.193 365.678 487.319 365.718 479.486 366.381C479.486 366.381 470.564 241.954 479.486 237.733Z" fill="#33323D"/>
<path opacity="0.1" d="M479.486 237.733C479.486 237.733 514.185 234.011 518.393 237.733C522.602 241.455 562.513 303.981 515.672 361.796C515.672 361.796 515.419 367.252 503.033 366.262C495.193 365.678 487.319 365.718 479.486 366.381C479.486 366.381 470.564 241.954 479.486 237.733Z" fill="black"/>
<path d="M475.025 237.733C475.025 237.733 509.724 234.011 513.932 237.733C518.141 241.455 558.052 303.981 511.211 361.796C511.211 361.796 510.958 367.252 498.572 366.262C490.732 365.678 482.858 365.718 475.025 366.381C475.025 366.381 466.103 241.954 475.025 237.733Z" fill="#33323D"/>
<path d="M490.884 368.495C490.884 368.495 476.014 372.463 473.538 371.227C471.062 369.991 464.118 370.215 464.118 370.215C464.118 370.215 459.657 370.482 459.166 368.495C458.675 366.508 458.422 364.773 456.935 366.381C455.448 367.989 453.218 366.381 453.218 366.381C453.218 366.381 449.746 365.51 447.515 366.381C445.285 367.252 444.355 361.29 441.567 361.796C438.779 362.302 430.913 363.969 430.66 361.796C430.407 359.622 420.749 362.54 420.749 360.582C420.749 358.625 403.403 357.233 403.403 357.233C403.403 357.233 415.046 343.462 411.827 334.284C411.827 334.284 421.493 335.029 424.965 338.006C428.437 340.983 437.351 340.083 437.351 340.083L481.716 354.851L490.884 368.495Z" fill="#4C4981"/>
<path d="M285.84 294.803C282.279 291.58 301.298 288.104 301.298 288.104C301.298 288.104 288.658 278.926 297.082 272.971C302.919 268.847 319.454 272.1 329.053 274.46C333.32 275.517 336.22 276.41 336.22 276.41L338.451 289.808C338.451 289.808 335.536 289.853 331.997 290.151C327.216 290.553 321.283 291.424 319.863 293.277C317.402 296.545 289.431 298.034 285.84 294.803Z" fill="#AE6E79"/>
<path opacity="0.1" d="M508.483 287.858C508.483 287.858 508.728 264.53 496.341 258.828C483.954 253.126 479.731 252.873 477.754 250.64C475.776 248.407 465.359 274.951 465.359 274.951L422.734 276.194C422.734 276.194 428.006 281.405 425.619 289.838C423.232 298.272 425.619 308.946 425.619 308.946C425.619 308.946 426.519 308.447 425.619 315.4C424.719 322.352 436.363 344.43 436.363 344.43C436.363 344.43 455.01 344.795 458.98 344.303C462.95 343.812 492.125 360.054 492.125 360.054C492.125 360.054 504.267 372.708 508.483 359.563C508.483 359.563 515.486 354.91 515.419 342.941C515.353 330.972 508.483 287.858 508.483 287.858Z" fill="black"/>
<path d="M509.226 287.858C509.226 287.858 509.471 264.53 497.085 258.828C484.698 253.126 480.475 252.873 478.497 250.64C476.519 248.407 466.103 274.951 466.103 274.951L423.478 276.194C423.478 276.194 428.749 281.405 426.362 289.838C423.976 298.272 426.362 308.946 426.362 308.946C426.362 308.946 427.262 308.447 426.362 315.4C425.463 322.352 437.106 344.43 437.106 344.43C437.106 344.43 451.233 353.109 455.196 352.618C459.158 352.127 489.151 369.984 489.151 369.984C489.151 369.984 505.01 372.716 509.226 359.563C509.226 359.563 516.23 354.91 516.163 342.941C516.096 330.972 509.226 287.858 509.226 287.858Z" fill="#4C4981"/>
<path opacity="0.1" d="M332.019 290.21C333.61 285.097 330.101 277.072 329.045 274.519C333.313 275.576 336.213 276.47 336.213 276.47L338.443 289.868C338.443 289.868 335.529 289.89 332.019 290.21Z" fill="black"/>
<path d="M478.497 257.831V250.64C478.497 250.64 463.374 249.151 458.913 250.64C454.452 252.129 455.099 252.873 451.798 252.375C448.497 251.876 443.441 255.851 443.441 255.851C443.441 255.851 430.98 256.342 426.34 258.828C421.701 261.314 400.897 256.096 400.897 256.096C397.306 257.52 394.024 259.625 391.232 262.297C387.024 266.517 371.41 268.75 365.462 267.507C359.514 266.264 357.284 270.984 357.284 270.984C357.284 270.984 329.521 272.971 329.521 273.715C329.521 274.46 336.956 288.848 330.517 293.314L356.042 289.838L405.359 290.091C405.359 290.091 411.559 285.372 417.009 287.858C422.459 290.344 435.351 285.871 435.351 285.871L464.095 279.417L478.497 257.831Z" fill="#4C4981"/>
<path d="M86.6703 213.169C86.6703 213.169 88.9008 202.748 86.6703 202.502C84.4398 202.257 61.6365 190.094 54.945 205.234C48.2534 220.374 33.8815 260.808 52.4691 326.565C52.4691 326.565 50.9821 330.778 60.1495 329.788C69.3169 328.798 79.4806 328.798 79.4806 328.798C79.4806 328.798 82.2093 318.868 81.213 311.425C80.2167 303.981 67.0864 239.222 86.6703 213.169Z" fill="#33323D"/>
<path opacity="0.1" d="M86.6703 213.169C86.6703 213.169 88.9008 202.748 86.6703 202.502C84.4398 202.257 61.6365 190.094 54.945 205.234C48.2534 220.374 33.8815 260.808 52.4691 326.565C52.4691 326.565 50.9821 330.778 60.1495 329.788C69.3169 328.798 79.4806 328.798 79.4806 328.798C79.4806 328.798 82.2093 318.868 81.213 311.425C80.2167 303.981 67.0864 239.222 86.6703 213.169Z" fill="black"/>
<path d="M89.6443 213.169C89.6443 213.169 91.8748 202.748 89.6443 202.502C87.4138 202.257 64.6105 190.094 57.919 205.234C51.2274 220.374 36.8555 260.808 55.4431 326.565C55.4431 326.565 53.9561 330.778 63.1235 329.788C72.2909 328.798 82.4546 328.798 82.4546 328.798C82.4546 328.798 85.1833 318.868 84.187 311.425C83.1907 303.981 70.0604 239.222 89.6443 213.169Z" fill="#33323D"/>
<path d="M469.59 273.939C465.954 273.299 462.46 271.847 458.779 271.624C455.099 271.401 450.913 272.822 449.471 276.224C449.187 277.173 448.814 278.093 448.355 278.971C447.471 280.281 445.805 280.817 444.244 281.092C442.228 281.458 440.172 281.545 438.132 281.353C436.08 281.167 433.872 280.727 432.08 281.74C428.905 283.519 429.374 288.156 430.266 291.684L420.875 290.471C420.132 290.374 419.292 290.315 418.786 290.858C418.606 291.115 418.478 291.405 418.412 291.712C418.345 292.019 418.341 292.336 418.4 292.645C418.593 295.711 419.017 298.868 420.63 301.495C422.243 304.123 425.247 306.08 428.273 305.582C431.783 305.001 434.571 301.369 438.095 301.86C440.824 302.24 442.556 304.912 444.653 306.668C448.489 309.847 454.318 310.018 458.66 307.524C463.002 305.031 465.694 300.215 466.185 295.257C466.46 292.511 466.125 289.652 467.077 287.069C467.406 286.171 467.938 285.36 468.632 284.702C469.326 284.043 470.163 283.554 471.077 283.273" fill="#444053"/>
<path d="M138.961 187.37L144.612 189.967C144.612 189.967 157.66 203.991 158.575 207.214C159.489 210.437 163.474 223.59 163.474 225.578C163.474 227.565 165.459 263.793 165.459 263.793L155.541 268.006L145.571 222.541L134.418 207.214L138.961 187.37Z" fill="#767D9F"/>
<path d="M291.134 296.605L272.881 294.23L265.855 293.314L264.368 282.648C264.368 282.648 266.836 281.494 270.628 279.864C282.138 274.914 305.87 265.594 309.967 270.998C315.424 278.182 297.327 279.931 297.327 279.931L301.298 288.119L291.134 296.605Z" fill="#FFB9B9"/>
<path d="M257.178 294.826V240.956H175.891V294.826H257.178Z" fill="white"/>
<path opacity="0.1" d="M257.178 294.826V240.956H175.891V294.826H257.178Z" fill="black"/>
<path d="M252.777 319.037L260.646 265.747L180.233 253.845L172.364 307.135L252.777 319.037Z" fill="white"/>
<path d="M248.927 298.193L252.977 270.763L211.59 264.637L207.54 292.067L248.927 298.193Z" fill="#6C63FF"/>
<path d="M194.905 294.929L199.812 261.697L190.825 260.366L185.917 293.598L194.905 294.929Z" fill="#6C63FF"/>
<path opacity="0.1" d="M462.266 308.946C462.266 326.143 476.191 340.083 493.367 340.083C510.544 340.083 524.468 326.143 524.468 308.946C524.468 291.75 510.544 277.81 493.367 277.81C476.191 277.81 462.266 291.75 462.266 308.946Z" fill="black"/>
<path d="M463.01 308.946C463.01 326.143 476.934 340.083 494.111 340.083C511.287 340.083 525.211 326.143 525.211 308.946C525.211 291.75 511.287 277.81 494.111 277.81C476.934 277.81 463.01 291.75 463.01 308.946Z" fill="#AE6E79"/>
<path d="M471.062 283.273C471.863 283.061 472.713 283.138 473.463 283.489C475.924 284.672 476.14 288.044 476.014 290.776C475.716 297.2 475.679 304.249 479.731 309.274C481.397 311.358 485.583 313.688 484.787 316.717C484.081 319.412 480.43 320.536 479.62 323.342C479.032 325.374 479.969 327.481 480.363 329.55C480.951 332.527 480.46 335.579 480.438 338.601C480.415 341.624 480.988 344.906 483.196 346.968C486.17 349.752 490.817 349.298 494.891 349.052C500.154 348.747 505.435 349.105 510.609 350.117C515.754 351.129 521.509 352.685 525.918 349.841C530.119 347.132 531.271 341.519 534.49 337.686C537.464 334.098 542.23 332.2 544.989 328.411C548.461 323.64 547.963 317.156 547.36 311.291L546.007 298.562C545.658 295.28 545.264 291.863 543.308 289.161C539.784 284.285 532.461 283.615 528.602 279C526.892 276.946 526.044 274.318 524.765 271.974C523.486 269.629 521.464 267.366 518.817 267.098C516.587 266.875 514.527 268.081 512.379 268.669C507.248 270.061 501.969 267.887 496.802 266.495C491.635 265.103 485.36 264.835 481.932 268.877C481.233 269.696 480.698 270.649 479.969 271.445C477.478 274.177 473.278 274.549 469.649 273.916" fill="#444053"/>
<path d="M455.263 311.484C455.263 311.895 456.095 312.229 457.121 312.229C458.148 312.229 458.98 311.895 458.98 311.484C458.98 311.073 458.148 310.74 457.121 310.74C456.095 310.74 455.263 311.073 455.263 311.484Z" fill="#444053"/>
<path d="M447.515 311.484C447.515 311.895 448.347 312.229 449.374 312.229C450.401 312.229 451.233 311.895 451.233 311.484C451.233 311.073 450.401 310.74 449.374 310.74C448.347 310.74 447.515 311.073 447.515 311.484Z" fill="#444053"/>
<path d="M285.892 294.975C286.807 295.771 289.156 296.3 292.257 296.605L303.305 287.732C303.305 287.732 281.885 291.491 285.892 294.975Z" fill="#AE6E79"/>
<path opacity="0.1" d="M103.273 304.979C103.273 304.979 80.7892 290.419 83.1982 244.931C85.4287 202.078 106.492 181.161 113.927 182.159C121.362 183.156 139.459 179.427 144.664 188.605C147.675 193.927 145.89 200.932 143.853 205.874C143.161 207.582 142.965 209.451 143.29 211.265C143.615 213.079 144.447 214.764 145.69 216.124C149.757 220.642 154.337 229.069 150.731 242.37C150.275 244.082 150.308 245.887 150.827 247.581C152.515 253.119 155.444 266.302 148.939 275.867C147.898 277.378 147.308 279.155 147.239 280.99C147.169 282.825 147.622 284.642 148.545 286.228L148.627 286.362C151.355 290.828 125.578 311.671 125.578 311.671C125.578 311.671 105.749 312.668 103.273 304.979Z" fill="black"/>
<path d="M102.529 304.979C102.529 304.979 80.0457 290.419 82.4546 244.931C84.6851 202.078 105.749 181.161 113.184 182.159C120.619 183.156 138.716 179.427 143.92 188.605C146.931 193.927 145.147 200.932 143.11 205.874C142.417 207.582 142.222 209.451 142.547 211.265C142.872 213.079 143.704 214.764 144.946 216.124C149.013 220.642 153.593 229.069 149.987 242.37C149.531 244.082 149.565 245.887 150.084 247.581C151.772 253.119 154.701 266.302 148.195 275.867C147.154 277.378 146.565 279.155 146.495 280.99C146.425 282.825 146.878 284.642 147.801 286.228L147.883 286.362C150.612 290.828 124.834 311.671 124.834 311.671C124.834 311.671 105.005 312.668 102.529 304.979Z" fill="#767D9F"/>
<path opacity="0.1" d="M93.7261 244.931C93.7261 261.309 106.988 274.586 123.347 274.586C139.707 274.586 152.969 261.309 152.969 244.931C152.969 228.553 139.707 215.276 123.347 215.276C106.988 215.276 93.7261 228.553 93.7261 244.931Z" fill="black"/>
<path d="M92.9827 244.931C92.9827 261.309 106.245 274.586 122.604 274.586C138.963 274.586 152.225 261.309 152.225 244.931C152.225 228.553 138.963 215.276 122.604 215.276C106.245 215.276 92.9827 228.553 92.9827 244.931Z" fill="#FFB9B9"/>
<path d="M148.21 236.43C147.37 233.319 145.764 230.252 143.125 228.734C141.534 227.818 139.623 227.498 138.299 226.173C136.418 224.297 136.381 221.134 135.325 218.595C134.269 216.057 130.552 214.382 129.377 216.868C129.243 214.278 126.857 212.358 124.485 212.038C122.113 211.717 119.749 212.618 117.489 213.489C110.173 216.333 102.537 219.392 97.3322 225.659C88.8414 235.872 89.2354 251.265 90.1351 264.984C90.098 266.105 90.3543 267.216 90.8786 268.207C91.86 269.696 93.7411 269.882 95.3917 270.128C102.44 271.162 108.842 274.988 115.57 277.489C122.299 279.99 130.203 281.018 136.158 276.805C144.991 270.604 151.036 246.866 148.21 236.43Z" fill="#B96B6B"/>
<path opacity="0.1" d="M272.881 294.23L265.855 293.314L264.368 282.648C264.368 282.648 266.836 281.494 270.628 279.864L273.29 294.059L272.881 294.23Z" fill="black"/>
<path d="M117.645 305.47L124.834 311.678L164.486 310.435C167.346 311.046 170.245 311.461 173.162 311.678C177.378 311.923 186.791 308.574 186.791 308.574C188.675 309.093 190.503 309.799 192.248 310.68C195.222 312.169 201.913 308.581 201.913 308.581C201.913 308.581 219.259 303.237 227.936 305.47C236.613 307.703 241.565 304.926 241.565 304.926C241.565 304.926 251.23 302.745 255.193 302.991C259.156 303.237 262.881 298.026 262.881 298.026L272.546 294.059L269.572 278.182H236.115C236.115 278.182 204.144 279.172 197.943 278.182C191.742 277.192 185.802 280.162 185.802 280.162C185.802 280.162 176.634 278.427 173.162 279.916C169.69 281.405 161.266 284.382 161.266 284.382C158.256 283.829 155.157 284 152.225 284.881C147.883 286.37 145.407 284.881 145.407 284.881L117.645 305.47Z" fill="#767D9F"/>
<g opacity="0.1">
<path opacity="0.1" d="M513.055 350.139C508.703 349.3 504.274 348.923 499.843 349.015C503.528 349.079 507.2 349.465 510.817 350.169C514.118 350.824 517.672 351.658 520.966 351.479C518.303 351.205 515.66 350.757 513.055 350.139Z" fill="black"/>
<path opacity="0.1" d="M482.363 271.468C483.107 270.671 483.627 269.718 484.334 268.9C486.185 266.726 488.869 265.81 491.769 265.632C488.051 265.416 484.453 266.175 482.103 268.9C481.397 269.718 480.861 270.671 480.133 271.468C478.487 273.133 476.263 274.098 473.925 274.162C477.047 274.378 480.296 273.745 482.363 271.468Z" fill="black"/>
<path opacity="0.1" d="M510.126 269.093C511.696 269.223 513.277 269.087 514.802 268.691C516.393 268.259 517.947 267.485 519.546 267.202C519.375 267.202 519.196 267.143 519.011 267.121C516.78 266.905 514.721 268.111 512.572 268.691C511.772 268.905 510.952 269.04 510.126 269.093Z" fill="black"/>
<path opacity="0.1" d="M485.642 346.991C483.412 344.929 482.861 341.646 482.884 338.624C482.906 335.602 483.397 332.543 482.802 329.573C482.386 327.503 481.456 325.397 482.058 323.365C482.869 320.558 486.519 319.434 487.226 316.747C488.029 313.688 483.843 311.358 482.177 309.304C478.162 304.279 478.2 297.23 478.46 290.806C478.586 288.074 478.371 284.702 475.902 283.526C475.154 283.168 474.301 283.091 473.501 283.31L472.073 274.214C471.325 274.18 470.58 274.098 469.843 273.969L471.33 283.31C472.13 283.091 472.983 283.168 473.731 283.526C476.2 284.702 476.415 288.074 476.289 290.806C475.991 297.23 475.954 304.279 480.006 309.304C481.672 311.388 485.858 313.718 485.055 316.747C484.356 319.434 480.698 320.558 479.887 323.365C479.307 325.397 480.237 327.503 480.631 329.573C481.226 332.55 480.735 335.602 480.713 338.624C480.69 341.646 481.263 344.929 483.471 346.991C485.679 349.053 488.973 349.35 492.185 349.224C489.694 349.134 487.389 348.621 485.642 346.991Z" fill="black"/>
</g>
<g opacity="0.1">
<path opacity="0.1" d="M449.932 278.085C450.393 277.208 450.766 276.288 451.047 275.338C451.78 273.723 453.09 272.44 454.72 271.743C452.155 272.301 449.82 273.715 448.816 276.083C448.536 277.033 448.162 277.953 447.701 278.829C447.306 279.39 446.777 279.843 446.162 280.147C447.619 279.849 449.106 279.306 449.932 278.085Z" fill="black"/>
<path opacity="0.1" d="M431.842 290.799C430.972 287.367 430.519 282.886 433.426 281.003C432.725 281.062 432.044 281.264 431.426 281.598C428.563 283.206 428.66 287.136 429.366 290.479L431.842 290.799Z" fill="black"/>
<path opacity="0.1" d="M429.805 304.703C426.786 305.18 423.775 303.214 422.191 300.609C420.608 298.004 420.169 294.826 419.961 291.759C419.898 291.271 419.954 290.776 420.124 290.315C419.81 290.175 419.462 290.13 419.122 290.185C418.783 290.24 418.467 290.393 418.213 290.625C417.959 290.858 417.778 291.159 417.692 291.492C417.607 291.826 417.62 292.177 417.73 292.503C417.924 295.57 418.348 298.726 419.961 301.354C421.574 303.981 424.578 305.946 427.604 305.44C428.368 305.297 429.109 305.049 429.805 304.703Z" fill="black"/>
<path opacity="0.1" d="M456.72 308.008C454.912 308.463 453.025 308.498 451.201 308.111C449.378 307.724 447.667 306.925 446.199 305.775C444.073 304.018 442.37 301.346 439.641 300.967C438.387 300.84 437.124 301.1 436.021 301.711C436.482 301.644 436.95 301.644 437.411 301.711C440.14 302.091 441.872 304.763 443.969 306.52C447.456 309.408 452.593 309.81 456.72 308.008Z" fill="black"/>
</g>
<g opacity="0.1">
<path opacity="0.1" d="M134.18 218.603C135.229 221.134 135.266 224.297 137.154 226.18C138.478 227.505 140.388 227.826 141.972 228.741C144.619 230.23 146.218 233.319 147.058 236.43C149.883 246.851 143.846 270.611 135.095 276.805C132.447 278.62 129.322 279.609 126.113 279.648C129.818 279.886 133.496 278.889 136.574 276.812C145.325 270.619 151.363 246.881 148.537 236.438C147.697 233.326 146.099 230.26 143.452 228.749C141.868 227.833 139.957 227.513 138.634 226.188C136.753 224.305 136.716 221.141 135.66 218.61C134.864 216.682 132.515 215.253 130.939 215.774C131.652 215.982 132.311 216.343 132.871 216.831C133.43 217.319 133.877 217.924 134.18 218.603Z" fill="black"/>
<path opacity="0.1" d="M123.377 212.053C125.756 212.365 128.136 214.286 128.269 216.883C128.383 216.611 128.556 216.367 128.776 216.17C128.996 215.973 129.257 215.827 129.541 215.745C129.174 214.756 128.545 213.887 127.72 213.231C126.896 212.575 125.908 212.158 124.864 212.023C124.259 211.952 123.648 211.952 123.043 212.023C123.154 212.053 123.266 212.053 123.377 212.053Z" fill="black"/>
</g>
<path d="M392.816 369.731V301.994H304.584V369.731H392.816Z" fill="white"/>
<path opacity="0.1" d="M392.816 369.731V301.994H304.584V369.731H392.816Z" fill="black"/>
<path d="M387.639 395.611L376.17 328.854L289.215 343.829L300.685 410.585L387.639 395.611Z" fill="white"/>
<path d="M319.587 360.718L316.893 345.034L296.464 348.552L299.159 364.236L319.587 360.718Z" fill="#6C63FF"/>
<path d="M323.32 382.421L320.626 366.737L300.197 370.255L302.891 385.939L323.32 382.421Z" fill="#6C63FF"/>
<path d="M353.25 397.758L343.816 342.755L323.295 346.283L332.729 401.286L353.25 397.758Z" fill="#6C63FF"/>
<path d="M377.743 393.173L368.309 338.17L363.731 338.957L373.165 393.961L377.743 393.173Z" fill="#6C63FF"/>
<path d="M369.321 394.977L359.887 339.974L355.309 340.761L364.743 395.765L369.321 394.977Z" fill="#6C63FF"/>
<path d="M416.786 340.083C416.786 340.083 385.559 308.946 377.626 324.578C369.693 340.209 404.02 350.385 404.02 350.385L411.827 352.856L416.786 340.083Z" fill="#AE6E79"/>
<path opacity="0.1" d="M419.545 337.358L411.054 333.51C411.054 333.51 408.392 352.491 402.66 356.459L417.641 354.107L424.035 351.315L419.545 337.358Z" fill="black"/>
<path d="M420.288 338.103L411.797 334.254C411.797 334.254 409.136 353.236 403.403 357.203L418.385 354.851L424.779 352.06L420.288 338.103Z" fill="#4C4981"/>
<path d="M185.135 366.764L184.852 366.354L184.599 366.92L184.651 367.53L185.075 367.605L185.135 366.764Z" fill="#464A5F"/>
<path opacity="0.1" d="M185.135 366.764L184.852 366.354L184.599 366.92L184.651 367.53L185.075 367.605L185.135 366.764Z" fill="black"/>
<path d="M185.135 366.764L184.867 366.347L185.268 366.02L185.596 366.22L185.655 366.407L185.135 366.764Z" fill="#9C9CA1"/>
<path opacity="0.1" d="M185.135 366.764L184.867 366.347L185.268 366.02L185.596 366.22L185.655 366.407L185.135 366.764Z" fill="black"/>
<path d="M236.518 440.031L280.482 409.557C280.874 409.287 281.209 408.942 281.469 408.542C281.728 408.143 281.905 407.695 281.992 407.227C282.078 406.758 282.071 406.277 281.972 405.811C281.872 405.344 281.681 404.903 281.411 404.51L234.838 336.58C234.293 335.785 233.455 335.239 232.509 335.062C231.562 334.885 230.584 335.091 229.789 335.635L185.268 366.027L236.518 440.031Z" fill="#9C9CA1"/>
<path opacity="0.1" d="M236.518 440.031L280.482 409.557C280.874 409.287 281.209 408.942 281.469 408.542C281.728 408.143 281.905 407.695 281.992 407.227C282.078 406.758 282.071 406.277 281.972 405.811C281.872 405.344 281.681 404.903 281.411 404.51L234.838 336.58C234.293 335.785 233.455 335.239 232.509 335.062C231.562 334.885 230.584 335.091 229.789 335.635L185.268 366.027L236.518 440.031Z" fill="black"/>
<path d="M236.414 440.776L280.378 410.301C280.77 410.031 281.106 409.685 281.365 409.285C281.624 408.884 281.802 408.437 281.888 407.967C281.975 407.498 281.968 407.016 281.868 406.549C281.768 406.083 281.578 405.64 281.307 405.247L234.704 337.324C234.159 336.53 233.322 335.984 232.376 335.805C231.43 335.627 230.452 335.83 229.656 336.371L185.112 366.764L236.414 440.776Z" fill="#9C9CA1"/>
<path d="M227.723 466.248L235.842 440.939L184.592 366.92L176.19 392.63C176.004 393.206 175.953 393.817 176.044 394.415C176.134 395.013 176.362 395.582 176.711 396.077L226.347 466.456C226.421 466.588 226.533 466.694 226.669 466.761C226.805 466.827 226.957 466.85 227.107 466.828C227.256 466.805 227.395 466.738 227.505 466.634C227.615 466.53 227.691 466.395 227.723 466.248Z" fill="#464A5F"/>
<path opacity="0.1" d="M227.723 466.248L235.842 440.939L184.592 366.92L176.19 392.63C176.004 393.206 175.953 393.817 176.044 394.415C176.134 395.013 176.362 395.582 176.711 396.077L226.347 466.456C226.421 466.588 226.533 466.694 226.669 466.761C226.805 466.827 226.957 466.85 227.107 466.828C227.256 466.805 227.395 466.738 227.505 466.634C227.615 466.53 227.691 466.395 227.723 466.248Z" fill="black"/>
<path d="M228.236 466.091L236.362 440.783L185.112 366.764L176.726 392.474C176.535 393.048 176.483 393.66 176.572 394.258C176.661 394.857 176.889 395.426 177.239 395.92L226.875 466.3C226.951 466.427 227.063 466.528 227.196 466.591C227.33 466.654 227.479 466.675 227.625 466.653C227.771 466.631 227.907 466.565 228.016 466.465C228.124 466.365 228.201 466.235 228.236 466.091Z" fill="#464A5F"/>
<g opacity="0.1">
<path opacity="0.1" d="M238.377 428.821L241.054 426.953C241.209 426.841 241.315 426.673 241.349 426.484C241.384 426.295 241.345 426.101 241.239 425.941L239.388 423.164C239.278 423.008 239.113 422.9 238.926 422.863C238.74 422.826 238.546 422.861 238.384 422.963L235.745 424.683C235.587 424.79 235.476 424.955 235.436 425.142C235.396 425.329 235.429 425.524 235.529 425.687L237.366 428.613C237.475 428.772 237.641 428.882 237.829 428.921C238.018 428.96 238.214 428.924 238.377 428.821Z" fill="black"/>
<path opacity="0.1" d="M234.927 423.834L237.596 421.958C237.752 421.846 237.858 421.678 237.892 421.489C237.927 421.301 237.887 421.106 237.782 420.946L235.916 418.177C235.807 418.02 235.643 417.911 235.456 417.872C235.269 417.833 235.074 417.868 234.912 417.968L232.273 419.688C232.113 419.794 232.001 419.958 231.96 420.145C231.918 420.333 231.95 420.529 232.05 420.693L233.886 423.626C233.94 423.708 234.01 423.78 234.092 423.835C234.174 423.891 234.266 423.929 234.363 423.948C234.46 423.968 234.56 423.968 234.657 423.948C234.753 423.928 234.845 423.89 234.927 423.834Z" fill="black"/>
<path opacity="0.1" d="M231.306 418.594L233.975 416.718C234.131 416.606 234.237 416.438 234.271 416.249C234.306 416.06 234.267 415.866 234.161 415.706L232.295 412.929C232.185 412.771 232.018 412.662 231.83 412.625C231.641 412.587 231.446 412.624 231.284 412.728L228.645 414.448C228.486 414.555 228.376 414.72 228.336 414.907C228.296 415.094 228.329 415.289 228.429 415.452L230.265 418.378C230.319 418.461 230.388 418.533 230.47 418.589C230.552 418.646 230.643 418.685 230.74 418.705C230.837 418.725 230.937 418.726 231.035 418.706C231.132 418.687 231.224 418.649 231.306 418.594Z" fill="black"/>
<path opacity="0.1" d="M227.633 413.287L230.31 411.411C230.463 411.299 230.568 411.132 230.602 410.945C230.637 410.758 230.599 410.565 230.496 410.406L228.622 407.629C228.512 407.474 228.347 407.366 228.16 407.328C227.974 407.291 227.78 407.327 227.618 407.428L224.979 409.148C224.822 409.254 224.711 409.417 224.669 409.602C224.628 409.788 224.659 409.982 224.756 410.145L226.6 413.078C226.654 413.16 226.724 413.23 226.805 413.285C226.886 413.34 226.977 413.378 227.073 413.397C227.169 413.417 227.268 413.417 227.364 413.398C227.46 413.379 227.552 413.341 227.633 413.287Z" fill="black"/>
<path opacity="0.1" d="M223.968 407.987L226.637 406.111C226.792 405.998 226.898 405.831 226.933 405.642C226.968 405.453 226.928 405.259 226.823 405.098L224.957 402.329C224.848 402.172 224.683 402.063 224.496 402.024C224.31 401.986 224.115 402.02 223.953 402.121L221.314 403.84C221.154 403.947 221.042 404.111 221.001 404.298C220.959 404.485 220.991 404.681 221.091 404.845L222.934 407.778C222.988 407.86 223.058 407.93 223.139 407.985C223.221 408.04 223.312 408.078 223.408 408.097C223.504 408.117 223.603 408.117 223.699 408.098C223.795 408.079 223.886 408.041 223.968 407.987Z" fill="black"/>
<path opacity="0.1" d="M219.968 402.918L223.284 400.588C223.321 400.563 223.352 400.531 223.377 400.494C223.401 400.457 223.418 400.416 223.427 400.372C223.435 400.328 223.434 400.283 223.425 400.24C223.416 400.197 223.398 400.155 223.373 400.119L221.076 396.71C221.052 396.672 221.02 396.64 220.984 396.614C220.947 396.589 220.905 396.572 220.862 396.563C220.818 396.554 220.773 396.553 220.729 396.562C220.686 396.571 220.644 396.588 220.607 396.613L217.328 398.749C217.253 398.798 217.2 398.875 217.18 398.962C217.161 399.05 217.177 399.142 217.224 399.218L219.455 402.821C219.479 402.864 219.513 402.901 219.553 402.93C219.594 402.959 219.64 402.979 219.689 402.988C219.738 402.997 219.788 402.996 219.836 402.984C219.884 402.971 219.929 402.949 219.968 402.918Z" fill="black"/>
<path opacity="0.1" d="M216.302 397.618L219.618 395.273C219.656 395.248 219.687 395.215 219.712 395.177C219.736 395.14 219.753 395.098 219.762 395.053C219.77 395.009 219.769 394.964 219.76 394.92C219.751 394.875 219.733 394.834 219.708 394.797L217.41 391.387C217.359 391.314 217.282 391.264 217.194 391.248C217.107 391.231 217.016 391.249 216.942 391.298L213.663 393.434C213.624 393.457 213.59 393.488 213.564 393.524C213.537 393.561 213.518 393.602 213.509 393.646C213.499 393.69 213.498 393.736 213.507 393.78C213.516 393.824 213.533 393.866 213.559 393.903L215.789 397.499C215.811 397.545 215.842 397.585 215.882 397.617C215.921 397.649 215.967 397.672 216.017 397.683C216.066 397.695 216.118 397.695 216.167 397.683C216.217 397.672 216.263 397.65 216.302 397.618Z" fill="black"/>
<path opacity="0.1" d="M213.053 392.921L216.34 390.591C216.411 390.539 216.46 390.46 216.475 390.373C216.49 390.285 216.471 390.195 216.421 390.122L214.131 386.713C214.08 386.638 214.002 386.586 213.913 386.568C213.824 386.55 213.732 386.567 213.655 386.616L210.377 388.752C210.303 388.802 210.251 388.879 210.231 388.966C210.212 389.053 210.227 389.144 210.273 389.221L212.503 392.824C212.526 392.873 212.561 392.917 212.605 392.95C212.648 392.983 212.699 393.005 212.753 393.015C212.807 393.024 212.862 393.021 212.915 393.004C212.967 392.988 213.014 392.959 213.053 392.921Z" fill="black"/>
<path opacity="0.1" d="M209.425 387.665L212.741 385.336C212.813 385.283 212.861 385.205 212.877 385.118C212.892 385.03 212.873 384.94 212.823 384.867L210.533 381.457C210.508 381.42 210.476 381.387 210.439 381.362C210.401 381.337 210.359 381.319 210.315 381.31C210.271 381.301 210.225 381.301 210.181 381.309C210.137 381.318 210.094 381.336 210.057 381.361L206.778 383.497C206.704 383.547 206.652 383.624 206.633 383.711C206.614 383.798 206.628 383.889 206.674 383.966L208.904 387.569C208.93 387.612 208.964 387.65 209.005 387.678C209.046 387.707 209.093 387.727 209.143 387.736C209.192 387.746 209.243 387.744 209.291 387.732C209.34 387.719 209.386 387.697 209.425 387.665Z" fill="black"/>
<path opacity="0.1" d="M205.93 382.574L209.246 380.244C209.283 380.219 209.315 380.188 209.339 380.151C209.364 380.114 209.381 380.072 209.389 380.028C209.397 379.985 209.397 379.94 209.388 379.896C209.379 379.853 209.361 379.812 209.336 379.775L207.038 376.366C207.014 376.329 206.983 376.296 206.946 376.271C206.909 376.246 206.868 376.228 206.824 376.219C206.781 376.21 206.736 376.21 206.692 376.218C206.648 376.227 206.607 376.244 206.57 376.269L203.291 378.406C203.216 378.454 203.163 378.531 203.143 378.619C203.124 378.706 203.139 378.798 203.187 378.875L205.417 382.477C205.442 382.521 205.476 382.558 205.516 382.587C205.556 382.616 205.603 382.636 205.652 382.645C205.7 382.654 205.751 382.652 205.799 382.64C205.847 382.628 205.892 382.605 205.93 382.574Z" fill="black"/>
<path opacity="0.1" d="M202.377 377.483L205.7 375.175C205.772 375.123 205.82 375.045 205.836 374.957C205.851 374.87 205.832 374.78 205.782 374.706L203.492 371.297C203.467 371.259 203.435 371.227 203.398 371.201C203.36 371.176 203.318 371.158 203.274 371.149C203.23 371.14 203.184 371.14 203.14 371.149C203.096 371.158 203.053 371.175 203.016 371.2L199.737 373.337C199.663 373.387 199.611 373.463 199.592 373.55C199.573 373.638 199.587 373.729 199.633 373.806L201.864 377.408C201.89 377.45 201.925 377.485 201.966 377.512C202.008 377.539 202.054 377.556 202.103 377.563C202.152 377.57 202.201 377.567 202.249 377.553C202.296 377.539 202.339 377.515 202.377 377.483Z" fill="black"/>
<path opacity="0.1" d="M198.86 372.391L202.176 370.061C202.213 370.037 202.244 370.005 202.269 369.968C202.293 369.931 202.31 369.889 202.318 369.846C202.327 369.802 202.326 369.757 202.317 369.714C202.308 369.67 202.29 369.629 202.265 369.592L199.982 366.183C199.958 366.146 199.927 366.113 199.89 366.088C199.854 366.063 199.812 366.045 199.769 366.036C199.725 366.027 199.68 366.027 199.636 366.036C199.592 366.044 199.551 366.061 199.514 366.086L196.235 368.223C196.16 368.272 196.107 368.348 196.087 368.436C196.068 368.524 196.083 368.615 196.131 368.692L198.362 372.294C198.386 372.335 198.419 372.371 198.459 372.398C198.498 372.426 198.542 372.444 198.589 372.454C198.636 372.463 198.684 372.462 198.731 372.451C198.778 372.44 198.821 372.42 198.86 372.391Z" fill="black"/>
<path opacity="0.1" d="M243.217 425.472L245.894 423.596C246.049 423.483 246.155 423.316 246.19 423.127C246.224 422.938 246.185 422.744 246.08 422.583L244.206 419.837C244.097 419.68 243.933 419.57 243.746 419.532C243.559 419.493 243.364 419.527 243.202 419.628L240.563 421.348C240.405 421.455 240.294 421.62 240.254 421.807C240.214 421.994 240.247 422.19 240.347 422.353L242.184 425.285C242.296 425.447 242.468 425.557 242.662 425.592C242.856 425.627 243.055 425.584 243.217 425.472Z" fill="black"/>
<path opacity="0.1" d="M253.797 418.14L256.489 416.264C256.642 416.152 256.747 415.985 256.781 415.798C256.816 415.612 256.778 415.418 256.675 415.259L254.808 412.482C254.7 412.325 254.535 412.216 254.348 412.177C254.161 412.139 253.967 412.173 253.805 412.274L251.165 413.994C251.006 414.1 250.894 414.264 250.852 414.451C250.811 414.638 250.843 414.834 250.942 414.998L252.779 417.931C252.888 418.092 253.055 418.204 253.246 418.243C253.436 418.282 253.634 418.245 253.797 418.14Z" fill="black"/>
<path opacity="0.1" d="M239.767 420.477L242.436 418.601C242.59 418.489 242.694 418.322 242.729 418.136C242.763 417.949 242.725 417.756 242.622 417.596L240.756 414.82C240.646 414.664 240.481 414.556 240.294 414.519C240.108 414.481 239.914 414.517 239.752 414.619L237.113 416.331C236.954 416.437 236.842 416.601 236.8 416.788C236.758 416.976 236.791 417.172 236.89 417.336L238.726 420.268C238.78 420.351 238.85 420.423 238.932 420.478C239.014 420.533 239.106 420.572 239.203 420.591C239.3 420.611 239.4 420.611 239.497 420.591C239.594 420.571 239.686 420.533 239.767 420.477Z" fill="black"/>
<path opacity="0.1" d="M236.146 415.237L238.816 413.361C238.971 413.248 239.077 413.081 239.112 412.892C239.146 412.703 239.107 412.509 239.002 412.348L237.158 409.579C237.049 409.42 236.883 409.31 236.694 409.271C236.505 409.232 236.309 409.268 236.146 409.371L233.507 411.09C233.349 411.198 233.238 411.363 233.198 411.55C233.158 411.737 233.191 411.932 233.291 412.095L235.128 415.028C235.237 415.189 235.404 415.301 235.595 415.34C235.785 415.379 235.983 415.342 236.146 415.237Z" fill="black"/>
<path opacity="0.1" d="M232.474 409.929L235.15 408.061C235.305 407.949 235.411 407.781 235.446 407.592C235.481 407.404 235.441 407.209 235.336 407.049L233.44 404.272C233.33 404.116 233.165 404.009 232.978 403.971C232.792 403.934 232.598 403.97 232.436 404.071L229.797 405.791C229.639 405.898 229.528 406.063 229.488 406.25C229.448 406.437 229.481 406.632 229.581 406.796L231.418 409.721C231.472 409.806 231.542 409.879 231.626 409.936C231.709 409.993 231.802 410.032 231.901 410.051C232 410.071 232.101 410.07 232.2 410.049C232.298 410.028 232.391 409.987 232.474 409.929Z" fill="black"/>
<path opacity="0.1" d="M250.176 413.264L252.846 411.388C252.999 411.276 253.103 411.11 253.138 410.923C253.173 410.736 253.134 410.543 253.031 410.383L251.165 407.607C251.057 407.45 250.892 407.341 250.705 407.302C250.518 407.263 250.324 407.298 250.161 407.399L247.522 409.118C247.363 409.224 247.251 409.388 247.209 409.576C247.167 409.763 247.2 409.959 247.299 410.123L249.135 413.056C249.189 413.139 249.259 413.21 249.341 413.265C249.423 413.321 249.515 413.359 249.612 413.379C249.709 413.398 249.809 413.398 249.906 413.378C250.003 413.359 250.095 413.32 250.176 413.264Z" fill="black"/>
<path opacity="0.1" d="M246.548 408.024L249.225 406.148C249.38 406.036 249.486 405.868 249.521 405.679C249.555 405.491 249.516 405.296 249.411 405.136L247.567 402.367C247.458 402.21 247.293 402.1 247.106 402.062C246.92 402.023 246.725 402.057 246.563 402.158L243.924 403.878C243.765 403.985 243.655 404.15 243.615 404.337C243.575 404.524 243.608 404.719 243.708 404.883L245.544 407.815C245.653 407.972 245.818 408.082 246.005 408.12C246.191 408.159 246.386 408.125 246.548 408.024Z" fill="black"/>
<path opacity="0.1" d="M242.883 402.717L245.552 400.841C245.706 400.73 245.812 400.564 245.848 400.377C245.884 400.19 245.847 399.996 245.745 399.836L243.849 397.059C243.739 396.904 243.574 396.796 243.387 396.758C243.201 396.721 243.007 396.757 242.845 396.858L240.206 398.578C240.047 398.684 239.935 398.848 239.893 399.035C239.851 399.223 239.884 399.419 239.983 399.583L241.827 402.508C241.881 402.593 241.952 402.666 242.035 402.723C242.118 402.78 242.211 402.819 242.31 402.839C242.409 402.858 242.51 402.857 242.609 402.836C242.707 402.815 242.8 402.775 242.883 402.717Z" fill="black"/>
<path opacity="0.1" d="M228.808 404.629L231.477 402.754C231.632 402.643 231.738 402.477 231.774 402.29C231.81 402.103 231.773 401.909 231.671 401.749L229.797 398.995C229.687 398.839 229.522 398.731 229.335 398.694C229.148 398.656 228.954 398.692 228.793 398.794L226.154 400.483C225.996 400.59 225.886 400.752 225.844 400.938C225.803 401.123 225.834 401.317 225.931 401.481L227.775 404.414C227.828 404.496 227.897 404.567 227.978 404.623C228.059 404.678 228.15 404.717 228.246 404.737C228.342 404.757 228.442 404.758 228.538 404.739C228.634 404.721 228.726 404.684 228.808 404.629Z" fill="black"/>
<path opacity="0.1" d="M225.143 399.33L227.812 397.454C227.967 397.342 228.073 397.174 228.108 396.985C228.142 396.797 228.103 396.602 227.998 396.442L226.131 393.673C226.023 393.516 225.858 393.406 225.671 393.368C225.484 393.329 225.29 393.363 225.128 393.464L222.488 395.184C222.329 395.29 222.217 395.454 222.175 395.641C222.134 395.829 222.166 396.025 222.265 396.189L224.102 399.121C224.156 399.204 224.226 399.275 224.308 399.331C224.389 399.386 224.481 399.425 224.578 399.444C224.675 399.464 224.775 399.464 224.872 399.444C224.969 399.424 225.061 399.385 225.143 399.33Z" fill="black"/>
<path opacity="0.1" d="M221.143 394.261L224.459 391.931C224.495 391.906 224.527 391.874 224.552 391.837C224.576 391.8 224.593 391.759 224.601 391.715C224.61 391.671 224.609 391.626 224.6 391.583C224.591 391.54 224.573 391.498 224.548 391.462L222.25 388.053C222.226 388.015 222.195 387.983 222.158 387.957C222.122 387.932 222.08 387.915 222.037 387.906C221.993 387.897 221.948 387.896 221.904 387.905C221.86 387.914 221.819 387.931 221.782 387.956L218.503 390.092C218.465 390.116 218.432 390.147 218.406 390.183C218.38 390.22 218.362 390.261 218.352 390.305C218.342 390.348 218.342 390.394 218.35 390.438C218.358 390.482 218.374 390.524 218.399 390.561L220.63 394.164C220.654 394.207 220.688 394.244 220.728 394.273C220.769 394.302 220.815 394.322 220.864 394.331C220.912 394.341 220.963 394.339 221.011 394.327C221.059 394.315 221.104 394.292 221.143 394.261Z" fill="black"/>
<path opacity="0.1" d="M217.893 389.564L221.217 387.234C221.289 387.181 221.337 387.103 221.353 387.016C221.368 386.928 221.348 386.838 221.299 386.765L219.009 383.363C218.957 383.288 218.879 383.236 218.79 383.218C218.702 383.2 218.609 383.218 218.533 383.266L215.254 385.403C215.18 385.453 215.128 385.529 215.109 385.616C215.089 385.704 215.104 385.795 215.15 385.872L217.38 389.474C217.404 389.519 217.437 389.558 217.477 389.588C217.518 389.618 217.565 389.638 217.615 389.646C217.664 389.655 217.715 389.652 217.764 389.638C217.812 389.623 217.856 389.598 217.893 389.564Z" fill="black"/>
<path opacity="0.1" d="M214.265 384.308L217.581 381.979C217.653 381.926 217.702 381.848 217.717 381.761C217.732 381.673 217.713 381.583 217.663 381.51L215.373 378.1C215.349 378.063 215.318 378.031 215.281 378.005C215.244 377.98 215.203 377.962 215.159 377.953C215.115 377.944 215.07 377.944 215.027 377.953C214.983 377.962 214.941 377.979 214.905 378.004L211.618 380.14C211.544 380.19 211.492 380.267 211.473 380.354C211.454 380.441 211.468 380.532 211.514 380.609L213.745 384.212C213.77 384.255 213.804 384.293 213.845 384.321C213.887 384.35 213.933 384.37 213.983 384.379C214.032 384.389 214.083 384.387 214.132 384.375C214.18 384.362 214.226 384.34 214.265 384.308Z" fill="black"/>
<path opacity="0.1" d="M210.741 379.217L214.057 376.887C214.094 376.862 214.125 376.83 214.15 376.793C214.174 376.756 214.191 376.715 214.2 376.671C214.208 376.628 214.208 376.583 214.198 376.539C214.189 376.496 214.171 376.455 214.146 376.418L211.879 373.009C211.854 372.971 211.823 372.939 211.786 372.914C211.75 372.889 211.708 372.871 211.665 372.862C211.621 372.853 211.576 372.853 211.532 372.861C211.489 372.87 211.447 372.887 211.41 372.912L208.131 375.048C208.056 375.097 208.003 375.174 207.983 375.262C207.964 375.349 207.98 375.441 208.027 375.517L210.258 379.12C210.282 379.159 210.315 379.192 210.353 379.218C210.391 379.244 210.434 379.262 210.479 379.271C210.524 379.28 210.57 379.28 210.615 379.271C210.66 379.261 210.703 379.243 210.741 379.217Z" fill="black"/>
<path opacity="0.1" d="M241.18 411.746L243.849 409.87C244.002 409.758 244.107 409.591 244.142 409.404C244.176 409.217 244.138 409.024 244.035 408.865L242.161 406.088C242.052 405.933 241.886 405.825 241.7 405.787C241.513 405.75 241.319 405.786 241.158 405.887L238.518 407.607C238.362 407.714 238.253 407.877 238.213 408.063C238.173 408.248 238.205 408.442 238.303 408.604L240.139 411.537C240.193 411.62 240.263 411.691 240.345 411.747C240.427 411.802 240.519 411.841 240.616 411.86C240.713 411.88 240.813 411.879 240.909 411.86C241.006 411.84 241.098 411.801 241.18 411.746Z" fill="black"/>
<path opacity="0.1" d="M237.507 406.438L240.184 404.562C240.339 404.45 240.445 404.282 240.48 404.094C240.514 403.905 240.475 403.71 240.37 403.55L238.496 400.781C238.387 400.624 238.223 400.515 238.036 400.476C237.849 400.437 237.654 400.472 237.492 400.573L234.853 402.292C234.693 402.399 234.581 402.562 234.54 402.75C234.498 402.937 234.53 403.133 234.63 403.297L236.474 406.23C236.528 406.312 236.597 406.382 236.679 406.437C236.76 406.491 236.851 406.53 236.947 406.549C237.043 406.568 237.142 406.569 237.238 406.55C237.334 406.531 237.426 406.493 237.507 406.438Z" fill="black"/>
<path opacity="0.1" d="M233.842 401.146L236.511 399.27C236.666 399.158 236.772 398.99 236.807 398.801C236.841 398.613 236.802 398.418 236.697 398.258L234.831 395.481C234.721 395.326 234.555 395.218 234.369 395.18C234.182 395.143 233.988 395.179 233.827 395.28L231.187 397C231.028 397.106 230.916 397.27 230.874 397.458C230.833 397.645 230.865 397.841 230.964 398.005L232.808 400.93C232.862 401.012 232.931 401.084 233.012 401.139C233.093 401.195 233.184 401.233 233.28 401.254C233.376 401.274 233.475 401.274 233.572 401.256C233.668 401.237 233.76 401.2 233.842 401.146Z" fill="black"/>
<path opacity="0.1" d="M230.176 395.839L232.845 393.963C232.999 393.851 233.103 393.684 233.138 393.497C233.172 393.31 233.134 393.117 233.031 392.958L231.165 390.181C231.055 390.026 230.89 389.918 230.703 389.88C230.516 389.843 230.322 389.879 230.161 389.98L227.492 391.7C227.335 391.806 227.224 391.969 227.182 392.154C227.141 392.34 227.172 392.534 227.269 392.697L229.105 395.63C229.159 395.717 229.231 395.792 229.315 395.85C229.399 395.909 229.495 395.949 229.595 395.968C229.696 395.988 229.799 395.987 229.899 395.964C229.999 395.942 230.093 395.899 230.176 395.839Z" fill="black"/>
<path opacity="0.1" d="M226.176 390.807L229.492 388.477C229.529 388.452 229.561 388.42 229.585 388.383C229.61 388.346 229.627 388.305 229.635 388.261C229.643 388.218 229.643 388.173 229.634 388.129C229.624 388.086 229.607 388.045 229.581 388.008L227.284 384.599C227.234 384.525 227.157 384.473 227.069 384.455C226.982 384.437 226.891 384.454 226.816 384.502L223.529 386.638C223.492 386.662 223.459 386.694 223.434 386.731C223.409 386.767 223.391 386.809 223.382 386.853C223.373 386.896 223.373 386.941 223.382 386.985C223.39 387.029 223.408 387.07 223.433 387.107L225.663 390.71C225.688 390.753 225.721 390.791 225.762 390.82C225.802 390.849 225.848 390.868 225.897 390.878C225.946 390.887 225.996 390.885 226.044 390.873C226.093 390.861 226.138 390.838 226.176 390.807Z" fill="black"/>
<path opacity="0.1" d="M222.927 386.08L226.25 383.75C226.323 383.697 226.372 383.617 226.387 383.528C226.402 383.44 226.382 383.349 226.332 383.274L224.042 379.872C223.991 379.797 223.913 379.746 223.824 379.727C223.735 379.709 223.643 379.727 223.566 379.775L220.288 381.912C220.212 381.96 220.159 382.037 220.14 382.125C220.12 382.212 220.136 382.304 220.183 382.381L222.414 385.983C222.438 386.027 222.472 386.064 222.513 386.093C222.553 386.122 222.599 386.141 222.648 386.151C222.697 386.16 222.747 386.158 222.795 386.146C222.843 386.134 222.888 386.111 222.927 386.08Z" fill="black"/>
<path opacity="0.1" d="M219.314 380.825L222.637 378.495C222.709 378.441 222.758 378.362 222.773 378.273C222.789 378.185 222.769 378.093 222.719 378.019L220.429 374.609C220.376 374.536 220.298 374.486 220.21 374.468C220.122 374.45 220.03 374.466 219.953 374.513L216.674 376.656C216.599 376.705 216.546 376.782 216.526 376.87C216.507 376.957 216.522 377.049 216.57 377.125L218.801 380.721C218.823 380.766 218.856 380.805 218.896 380.835C218.936 380.866 218.983 380.887 219.032 380.897C219.081 380.907 219.132 380.905 219.181 380.893C219.23 380.881 219.275 380.857 219.314 380.825Z" fill="black"/>
<path opacity="0.1" d="M215.774 375.733L219.09 373.404C219.128 373.378 219.159 373.346 219.184 373.308C219.209 373.27 219.225 373.228 219.234 373.184C219.242 373.14 219.242 373.094 219.232 373.05C219.223 373.006 219.205 372.964 219.18 372.927L216.882 369.518C216.831 369.445 216.754 369.395 216.666 369.378C216.579 369.361 216.488 369.38 216.414 369.429L213.135 371.565C213.096 371.588 213.062 371.618 213.036 371.655C213.009 371.691 212.99 371.733 212.981 371.777C212.971 371.821 212.97 371.866 212.979 371.911C212.988 371.955 213.005 371.997 213.031 372.034L215.261 375.629C215.284 375.674 215.317 375.713 215.357 375.744C215.397 375.774 215.444 375.795 215.493 375.805C215.542 375.815 215.593 375.814 215.642 375.801C215.691 375.789 215.736 375.766 215.774 375.733Z" fill="black"/>
<path opacity="0.1" d="M207.224 374.126L210.54 371.796C210.612 371.743 210.661 371.665 210.676 371.578C210.691 371.49 210.672 371.4 210.622 371.327L208.332 367.918C208.308 367.88 208.277 367.848 208.24 367.823C208.203 367.797 208.162 367.78 208.118 367.771C208.075 367.762 208.03 367.761 207.986 367.77C207.942 367.779 207.901 367.796 207.864 367.821L204.577 369.957C204.503 370.007 204.452 370.084 204.432 370.171C204.413 370.258 204.427 370.349 204.473 370.426L206.704 374.029C206.729 374.072 206.763 374.11 206.804 374.139C206.846 374.168 206.892 374.187 206.942 374.197C206.991 374.206 207.042 374.204 207.091 374.192C207.139 374.18 207.185 374.157 207.224 374.126Z" fill="black"/>
<path opacity="0.1" d="M203.7 369.034L207.016 366.704C207.053 366.68 207.084 366.648 207.109 366.611C207.133 366.574 207.15 366.532 207.159 366.489C207.167 366.445 207.166 366.4 207.157 366.357C207.148 366.313 207.13 366.272 207.105 366.235L204.808 362.826C204.784 362.789 204.752 362.756 204.716 362.731C204.679 362.706 204.637 362.688 204.594 362.679C204.55 362.67 204.505 362.67 204.462 362.679C204.418 362.687 204.376 362.705 204.339 362.73L201.06 364.866C200.985 364.915 200.932 364.991 200.913 365.079C200.893 365.167 200.909 365.259 200.956 365.335L203.187 368.938C203.211 368.981 203.245 369.018 203.286 369.047C203.326 369.076 203.372 369.096 203.421 369.105C203.47 369.114 203.52 369.113 203.568 369.1C203.616 369.088 203.661 369.066 203.7 369.034Z" fill="black"/>
<path opacity="0.1" d="M224.771 377.029L227.894 374.796C227.991 374.725 228.057 374.62 228.077 374.502C228.098 374.384 228.072 374.262 228.005 374.163L225.842 370.947C225.809 370.897 225.766 370.854 225.716 370.821C225.667 370.787 225.611 370.764 225.552 370.752C225.493 370.74 225.433 370.74 225.374 370.752C225.315 370.764 225.259 370.787 225.21 370.821L222.124 372.83C222.073 372.862 222.029 372.903 221.994 372.951C221.959 373 221.934 373.055 221.921 373.113C221.908 373.171 221.907 373.232 221.917 373.291C221.928 373.349 221.95 373.406 221.983 373.456L224.117 376.857C224.147 376.913 224.188 376.963 224.238 377.002C224.288 377.041 224.345 377.07 224.406 377.086C224.468 377.102 224.532 377.105 224.595 377.095C224.657 377.086 224.717 377.063 224.771 377.029Z" fill="black"/>
<path opacity="0.1" d="M221.247 371.937L224.369 369.741C224.419 369.708 224.461 369.665 224.494 369.615C224.527 369.564 224.549 369.509 224.56 369.45C224.571 369.391 224.571 369.33 224.558 369.272C224.546 369.213 224.522 369.158 224.488 369.109L222.288 365.893C222.255 365.843 222.213 365.8 222.164 365.767C222.115 365.733 222.06 365.71 222.002 365.698C221.944 365.687 221.884 365.686 221.826 365.698C221.767 365.71 221.712 365.733 221.663 365.766L218.57 367.776C218.47 367.842 218.4 367.944 218.373 368.06C218.347 368.177 218.367 368.299 218.429 368.401L220.563 371.803C220.596 371.861 220.64 371.91 220.694 371.949C220.748 371.987 220.809 372.014 220.874 372.027C220.939 372.039 221.006 372.038 221.07 372.022C221.134 372.007 221.195 371.978 221.247 371.937Z" fill="black"/>
<path opacity="0.1" d="M217.722 366.846L220.853 364.65C220.95 364.579 221.016 364.474 221.036 364.356C221.057 364.238 221.031 364.116 220.964 364.017L218.801 360.801C218.768 360.751 218.725 360.708 218.675 360.675C218.626 360.641 218.57 360.618 218.511 360.606C218.452 360.594 218.392 360.594 218.333 360.606C218.274 360.618 218.218 360.641 218.169 360.675L215.083 362.685C215.032 362.716 214.988 362.757 214.953 362.805C214.918 362.854 214.893 362.909 214.88 362.967C214.867 363.026 214.866 363.086 214.876 363.145C214.887 363.204 214.909 363.26 214.942 363.31L217.076 366.712C217.108 366.764 217.151 366.81 217.201 366.846C217.252 366.881 217.31 366.906 217.37 366.919C217.431 366.931 217.493 366.931 217.554 366.919C217.614 366.906 217.672 366.881 217.722 366.846Z" fill="black"/>
<path opacity="0.1" d="M214.109 361.821L217.432 359.491C217.504 359.439 217.553 359.361 217.568 359.274C217.583 359.186 217.564 359.096 217.514 359.022L215.224 355.613C215.173 355.539 215.095 355.487 215.006 355.469C214.917 355.451 214.825 355.468 214.748 355.517L211.47 357.653C211.396 357.703 211.344 357.779 211.324 357.867C211.305 357.954 211.32 358.045 211.366 358.122L213.596 361.725C213.618 361.77 213.651 361.809 213.692 361.84C213.732 361.871 213.779 361.891 213.828 361.901C213.878 361.91 213.929 361.908 213.978 361.894C214.027 361.88 214.072 361.855 214.109 361.821Z" fill="black"/>
<path opacity="0.1" d="M248.422 422.07L251.284 420.053C251.438 419.939 251.543 419.771 251.576 419.582C251.609 419.394 251.569 419.2 251.463 419.04L245.953 411.165C245.843 411.012 245.678 410.907 245.493 410.872C245.308 410.836 245.117 410.871 244.957 410.971L242.028 412.87C241.946 412.924 241.877 412.994 241.823 413.076C241.769 413.158 241.731 413.249 241.713 413.345C241.694 413.441 241.695 413.54 241.714 413.636C241.734 413.732 241.772 413.823 241.827 413.904L247.411 421.899C247.525 422.052 247.694 422.155 247.882 422.187C248.07 422.219 248.263 422.177 248.422 422.07Z" fill="black"/>
<path opacity="0.1" d="M212.362 370.627L215.849 368.156C215.886 368.13 215.918 368.098 215.942 368.06C215.967 368.022 215.984 367.98 215.991 367.935C215.999 367.891 215.997 367.845 215.987 367.801C215.977 367.757 215.957 367.716 215.931 367.679L209.983 359.179C209.933 359.106 209.857 359.056 209.77 359.04C209.684 359.023 209.595 359.041 209.522 359.089L205.93 361.412C205.892 361.437 205.858 361.469 205.832 361.507C205.806 361.545 205.788 361.588 205.779 361.633C205.77 361.678 205.77 361.725 205.78 361.77C205.789 361.815 205.808 361.858 205.834 361.896L211.879 370.538C211.931 370.613 212.011 370.665 212.102 370.682C212.192 370.699 212.286 370.679 212.362 370.627Z" fill="black"/>
<path opacity="0.1" d="M239.031 397.67L242.362 395.392C242.435 395.341 242.485 395.263 242.502 395.176C242.518 395.088 242.5 394.998 242.451 394.923L229.723 376.046C229.673 375.972 229.596 375.92 229.508 375.902C229.421 375.884 229.329 375.901 229.254 375.949L225.685 378.279C225.647 378.304 225.613 378.336 225.587 378.374C225.561 378.412 225.543 378.455 225.534 378.5C225.525 378.546 225.525 378.592 225.535 378.637C225.544 378.682 225.562 378.725 225.589 378.763L238.555 397.58C238.581 397.618 238.613 397.649 238.651 397.674C238.688 397.699 238.731 397.716 238.775 397.724C238.819 397.732 238.864 397.732 238.908 397.722C238.952 397.713 238.994 397.695 239.031 397.67Z" fill="black"/>
</g>
<path d="M238.288 429.32L240.964 427.444C241.12 427.332 241.226 427.164 241.26 426.975C241.295 426.787 241.255 426.592 241.15 426.432L239.277 423.663C239.168 423.506 239.003 423.397 238.816 423.358C238.629 423.319 238.435 423.354 238.273 423.454L235.633 425.174C235.474 425.28 235.362 425.444 235.32 425.632C235.279 425.819 235.311 426.015 235.41 426.179L237.254 429.112C237.308 429.193 237.378 429.264 237.459 429.319C237.54 429.373 237.632 429.412 237.728 429.431C237.824 429.45 237.923 429.45 238.019 429.431C238.115 429.412 238.206 429.375 238.288 429.32Z" fill="#464A5F"/>
<path d="M234.838 424.303L237.507 422.427C237.66 422.315 237.765 422.148 237.799 421.962C237.834 421.775 237.796 421.582 237.693 421.422L235.827 418.646C235.718 418.489 235.553 418.38 235.366 418.341C235.18 418.302 234.985 418.337 234.823 418.437L232.184 420.157C232.024 420.263 231.912 420.427 231.871 420.614C231.829 420.802 231.861 420.998 231.96 421.162L233.797 424.094C233.851 424.177 233.921 424.249 234.003 424.304C234.085 424.359 234.177 424.398 234.274 424.417C234.371 424.437 234.47 424.437 234.567 424.417C234.664 424.397 234.756 424.359 234.838 424.303Z" fill="#464A5F"/>
<path d="M231.21 419.092L233.879 417.217C234.034 417.104 234.14 416.936 234.175 416.748C234.209 416.559 234.17 416.365 234.065 416.204L232.191 413.435C232.082 413.278 231.918 413.169 231.731 413.13C231.544 413.091 231.349 413.126 231.187 413.227L228.548 414.946C228.39 415.054 228.279 415.218 228.239 415.406C228.199 415.593 228.232 415.788 228.332 415.951L230.169 418.884C230.223 418.967 230.293 419.038 230.375 419.094C230.456 419.149 230.549 419.188 230.645 419.207C230.742 419.226 230.842 419.226 230.939 419.207C231.036 419.187 231.128 419.148 231.21 419.092Z" fill="#464A5F"/>
<path d="M227.544 413.778L230.221 411.902C230.374 411.79 230.479 411.623 230.513 411.436C230.548 411.249 230.51 411.057 230.407 410.897L228.533 408.12C228.478 408.039 228.407 407.969 228.325 407.915C228.242 407.861 228.15 407.824 228.053 407.806C227.956 407.788 227.857 407.789 227.76 407.81C227.664 407.831 227.573 407.871 227.492 407.927L224.853 409.646C224.693 409.753 224.581 409.917 224.54 410.104C224.498 410.291 224.53 410.487 224.63 410.651L226.473 413.577C226.528 413.663 226.6 413.737 226.684 413.795C226.769 413.852 226.865 413.892 226.965 413.911C227.066 413.93 227.169 413.927 227.268 413.905C227.368 413.882 227.462 413.838 227.544 413.778Z" fill="#464A5F"/>
<path d="M223.879 408.478L226.548 406.602C226.701 406.49 226.806 406.323 226.84 406.137C226.875 405.95 226.837 405.757 226.734 405.597L224.867 402.821C224.758 402.665 224.592 402.557 224.406 402.52C224.219 402.482 224.025 402.518 223.864 402.62L221.224 404.332C221.065 404.438 220.953 404.602 220.911 404.789C220.87 404.977 220.902 405.173 221.001 405.337L222.845 408.27C222.899 408.351 222.969 408.422 223.05 408.476C223.131 408.531 223.223 408.569 223.319 408.589C223.415 408.608 223.514 408.608 223.61 408.589C223.706 408.57 223.797 408.532 223.879 408.478Z" fill="#464A5F"/>
<path d="M219.879 403.409L223.195 401.079C223.231 401.054 223.263 401.022 223.288 400.985C223.312 400.948 223.329 400.907 223.337 400.863C223.346 400.82 223.345 400.775 223.336 400.731C223.327 400.688 223.309 400.647 223.284 400.61L220.986 397.201C220.962 397.163 220.931 397.131 220.894 397.106C220.858 397.08 220.816 397.063 220.773 397.054C220.729 397.045 220.684 397.045 220.64 397.053C220.596 397.062 220.555 397.079 220.518 397.104L217.239 399.24C217.164 399.289 217.111 399.366 217.091 399.453C217.072 399.541 217.087 399.633 217.135 399.709L219.366 403.312C219.39 403.355 219.424 403.393 219.464 403.422C219.505 403.451 219.551 403.47 219.6 403.479C219.648 403.489 219.699 403.487 219.747 403.475C219.795 403.463 219.84 403.44 219.879 403.409Z" fill="#464A5F"/>
<path d="M216.213 398.109L219.529 395.779C219.566 395.754 219.598 395.721 219.623 395.684C219.647 395.646 219.664 395.604 219.672 395.559C219.681 395.515 219.68 395.47 219.671 395.426C219.662 395.382 219.644 395.34 219.618 395.303L217.321 391.901C217.297 391.863 217.266 391.831 217.229 391.806C217.192 391.781 217.151 391.763 217.107 391.754C217.063 391.745 217.018 391.745 216.975 391.753C216.931 391.762 216.889 391.779 216.853 391.804L213.566 393.941C213.529 393.965 213.496 393.996 213.471 394.033C213.446 394.07 213.428 394.111 213.419 394.155C213.41 394.198 213.41 394.243 213.419 394.287C213.427 394.331 213.445 394.372 213.47 394.409L215.7 398.012C215.725 398.054 215.76 398.091 215.8 398.119C215.84 398.147 215.886 398.167 215.935 398.176C215.983 398.185 216.033 398.184 216.081 398.172C216.129 398.161 216.174 398.139 216.213 398.109Z" fill="#464A5F"/>
<path d="M212.964 393.412L216.287 391.082C216.359 391.03 216.408 390.952 216.423 390.864C216.438 390.777 216.419 390.687 216.369 390.613L214.109 387.204C214.058 387.129 213.979 387.077 213.891 387.059C213.802 387.041 213.709 387.058 213.633 387.107L210.354 389.243C210.28 389.294 210.228 389.37 210.209 389.457C210.19 389.544 210.204 389.636 210.25 389.712L212.481 393.315C212.505 393.354 212.538 393.387 212.576 393.413C212.614 393.439 212.657 393.457 212.702 393.466C212.747 393.475 212.793 393.475 212.838 393.466C212.883 393.456 212.926 393.438 212.964 393.412Z" fill="#464A5F"/>
<path d="M209.328 388.157L212.622 385.827C212.694 385.774 212.742 385.696 212.758 385.609C212.773 385.521 212.754 385.431 212.704 385.358L210.414 381.949C210.389 381.911 210.357 381.878 210.32 381.853C210.282 381.828 210.24 381.81 210.196 381.801C210.152 381.792 210.106 381.792 210.062 381.801C210.018 381.809 209.975 381.827 209.938 381.852L206.659 383.988C206.585 384.038 206.533 384.115 206.514 384.202C206.495 384.289 206.509 384.38 206.555 384.457L208.785 388.06C208.809 388.108 208.844 388.15 208.887 388.182C208.93 388.215 208.98 388.236 209.032 388.246C209.085 388.255 209.14 388.252 209.191 388.236C209.242 388.221 209.289 388.194 209.328 388.157Z" fill="#464A5F"/>
<path d="M205.811 383.065L209.128 380.735C209.164 380.711 209.196 380.679 209.221 380.642C209.245 380.605 209.262 380.563 209.27 380.52C209.279 380.476 209.278 380.431 209.269 380.388C209.26 380.344 209.242 380.303 209.217 380.267L206.919 376.857C206.895 376.82 206.864 376.787 206.827 376.762C206.79 376.737 206.749 376.719 206.705 376.71C206.662 376.701 206.617 376.701 206.573 376.71C206.529 376.718 206.488 376.736 206.451 376.761L203.172 378.897C203.134 378.92 203.101 378.951 203.075 378.988C203.049 379.024 203.031 379.066 203.021 379.109C203.011 379.153 203.01 379.198 203.019 379.242C203.027 379.286 203.043 379.328 203.068 379.366L205.298 382.969C205.323 383.012 205.357 383.049 205.397 383.078C205.438 383.107 205.484 383.127 205.533 383.136C205.581 383.145 205.632 383.144 205.68 383.131C205.728 383.119 205.773 383.097 205.811 383.065Z" fill="#464A5F"/>
<path d="M202.287 377.974L205.611 375.644C205.682 375.592 205.731 375.514 205.746 375.426C205.762 375.339 205.742 375.249 205.693 375.175L203.403 371.766C203.351 371.691 203.273 371.639 203.184 371.621C203.095 371.603 203.003 371.62 202.927 371.669L199.648 373.805C199.574 373.856 199.522 373.932 199.503 374.019C199.483 374.106 199.498 374.198 199.544 374.274L201.774 377.877C201.799 377.92 201.832 377.958 201.873 377.987C201.913 378.016 201.96 378.035 202.008 378.045C202.057 378.054 202.107 378.052 202.156 378.04C202.204 378.028 202.249 378.005 202.287 377.974Z" fill="#464A5F"/>
<path d="M198.771 372.882L202.087 370.553C202.123 370.528 202.155 370.496 202.18 370.459C202.204 370.422 202.221 370.38 202.229 370.337C202.238 370.293 202.237 370.248 202.228 370.205C202.219 370.161 202.201 370.12 202.176 370.084L199.878 366.674C199.854 366.637 199.823 366.605 199.786 366.579C199.75 366.554 199.708 366.536 199.664 366.527C199.621 366.518 199.576 366.518 199.532 366.527C199.488 366.535 199.447 366.553 199.41 366.578L196.131 368.714C196.093 368.738 196.06 368.768 196.034 368.805C196.008 368.841 195.99 368.883 195.98 368.926C195.97 368.97 195.97 369.015 195.978 369.059C195.986 369.104 196.002 369.146 196.027 369.183L198.258 372.786C198.282 372.829 198.316 372.866 198.356 372.895C198.397 372.924 198.443 372.944 198.492 372.953C198.54 372.962 198.591 372.961 198.639 372.949C198.687 372.936 198.732 372.914 198.771 372.882Z" fill="#464A5F"/>
<path d="M243.106 425.963L245.782 424.087C245.935 423.975 246.04 423.808 246.075 423.622C246.109 423.435 246.071 423.242 245.968 423.082L244.094 420.306C243.985 420.15 243.819 420.042 243.633 420.005C243.446 419.967 243.252 420.003 243.091 420.105L240.451 421.817C240.292 421.923 240.18 422.087 240.138 422.274C240.097 422.462 240.129 422.658 240.228 422.822L242.072 425.754C242.126 425.836 242.196 425.907 242.277 425.961C242.358 426.016 242.45 426.054 242.546 426.074C242.642 426.093 242.741 426.093 242.837 426.074C242.933 426.055 243.024 426.017 243.106 425.963Z" fill="#464A5F"/>
<path d="M253.708 418.631L256.377 416.755C256.53 416.643 256.635 416.476 256.67 416.29C256.704 416.103 256.666 415.91 256.563 415.75L254.697 412.974C254.587 412.818 254.422 412.71 254.235 412.673C254.048 412.635 253.854 412.671 253.693 412.773L251.054 414.492C250.896 414.598 250.786 414.761 250.744 414.946C250.703 415.132 250.734 415.326 250.831 415.49L252.667 418.422C252.721 418.505 252.791 418.576 252.873 418.632C252.955 418.687 253.047 418.726 253.144 418.745C253.241 418.765 253.341 418.765 253.438 418.745C253.534 418.725 253.626 418.686 253.708 418.631Z" fill="#464A5F"/>
<path d="M239.678 420.968L242.362 419.092C242.515 418.98 242.62 418.814 242.655 418.627C242.689 418.44 242.651 418.247 242.548 418.087L240.682 415.311C240.572 415.155 240.407 415.047 240.22 415.01C240.033 414.973 239.839 415.008 239.678 415.11L237.039 416.83C236.881 416.936 236.771 417.098 236.729 417.284C236.688 417.469 236.719 417.664 236.816 417.827L238.652 420.76C238.761 420.923 238.93 421.036 239.122 421.075C239.314 421.114 239.514 421.076 239.678 420.968Z" fill="#464A5F"/>
<path d="M236.057 415.728L238.726 413.882C238.88 413.77 238.984 413.603 239.019 413.416C239.053 413.229 239.015 413.036 238.912 412.877L237.046 410.1C236.936 409.943 236.769 409.833 236.581 409.796C236.392 409.759 236.197 409.796 236.035 409.899L233.395 411.611C233.237 411.719 233.127 411.884 233.087 412.071C233.046 412.258 233.08 412.453 233.18 412.616L235.016 415.549C235.073 415.63 235.144 415.698 235.227 415.751C235.31 415.803 235.403 415.839 235.5 415.856C235.596 415.872 235.695 415.87 235.791 415.848C235.887 415.826 235.977 415.785 236.057 415.728Z" fill="#464A5F"/>
<path d="M232.384 410.428L235.061 408.552C235.216 408.44 235.322 408.272 235.357 408.083C235.391 407.895 235.352 407.7 235.247 407.54L233.373 404.771C233.265 404.614 233.1 404.505 232.913 404.466C232.726 404.427 232.532 404.462 232.369 404.562L229.73 406.282C229.571 406.388 229.459 406.552 229.417 406.739C229.375 406.927 229.408 407.123 229.507 407.287L231.351 410.219C231.405 410.301 231.474 410.372 231.556 410.426C231.637 410.481 231.728 410.519 231.824 410.539C231.92 410.558 232.019 410.558 232.115 410.539C232.211 410.52 232.303 410.482 232.384 410.428Z" fill="#464A5F"/>
<path d="M250.087 413.755L252.771 411.879C252.924 411.767 253.029 411.601 253.064 411.414C253.098 411.227 253.06 411.034 252.957 410.875L251.091 408.098C250.981 407.942 250.816 407.835 250.629 407.797C250.442 407.76 250.248 407.796 250.087 407.897L247.448 409.617C247.29 409.723 247.18 409.885 247.138 410.071C247.097 410.256 247.128 410.451 247.225 410.614L249.061 413.547C249.17 413.71 249.339 413.823 249.531 413.862C249.723 413.901 249.923 413.863 250.087 413.755Z" fill="#464A5F"/>
<path d="M246.459 408.515L249.135 406.639C249.289 406.527 249.393 406.36 249.428 406.174C249.462 405.987 249.424 405.794 249.321 405.634L247.448 402.858C247.339 402.701 247.174 402.591 246.987 402.553C246.801 402.514 246.606 402.548 246.444 402.649L243.805 404.369C243.645 404.475 243.533 404.639 243.492 404.826C243.45 405.014 243.482 405.21 243.581 405.374L245.425 408.306C245.479 408.388 245.549 408.459 245.63 408.513C245.712 408.568 245.803 408.606 245.899 408.626C245.995 408.645 246.094 408.645 246.19 408.626C246.286 408.607 246.377 408.569 246.459 408.515Z" fill="#464A5F"/>
<path d="M242.793 403.215L245.463 401.339C245.618 401.227 245.724 401.059 245.758 400.87C245.793 400.682 245.754 400.487 245.648 400.327L243.782 397.558C243.674 397.401 243.509 397.292 243.322 397.253C243.135 397.214 242.941 397.249 242.778 397.349L240.132 399.069C239.972 399.175 239.86 399.339 239.819 399.527C239.777 399.714 239.809 399.91 239.909 400.074L241.752 402.999C241.806 403.083 241.875 403.154 241.957 403.211C242.039 403.267 242.131 403.306 242.228 403.326C242.325 403.346 242.425 403.347 242.522 403.328C242.619 403.309 242.711 403.27 242.793 403.215Z" fill="#464A5F"/>
<path d="M228.719 405.121L231.388 403.245C231.541 403.133 231.646 402.966 231.68 402.779C231.715 402.593 231.677 402.4 231.574 402.24L229.723 399.464C229.613 399.308 229.448 399.2 229.261 399.163C229.074 399.125 228.88 399.161 228.719 399.263L226.079 400.982C225.922 401.088 225.811 401.251 225.77 401.436C225.728 401.622 225.759 401.816 225.856 401.98L227.7 404.912C227.809 405.073 227.977 405.185 228.167 405.224C228.357 405.263 228.556 405.226 228.719 405.121Z" fill="#464A5F"/>
<path d="M225.053 399.821L227.723 397.945C227.876 397.833 227.98 397.667 228.015 397.48C228.05 397.293 228.011 397.1 227.908 396.94L226.005 394.164C225.896 394.007 225.732 393.898 225.545 393.859C225.358 393.82 225.163 393.855 225.001 393.955L222.362 395.675C222.203 395.781 222.09 395.945 222.049 396.133C222.007 396.32 222.04 396.516 222.139 396.68L223.975 399.613C224.029 399.701 224.101 399.777 224.186 399.836C224.271 399.895 224.367 399.935 224.468 399.955C224.57 399.974 224.674 399.973 224.775 399.95C224.876 399.927 224.971 399.883 225.053 399.821Z" fill="#464A5F"/>
<path d="M221.053 394.752L224.369 392.422C224.406 392.397 224.438 392.366 224.462 392.328C224.487 392.291 224.504 392.25 224.512 392.206C224.52 392.163 224.52 392.118 224.511 392.074C224.502 392.031 224.484 391.99 224.459 391.953L222.161 388.574C222.137 388.536 222.106 388.504 222.069 388.479C222.032 388.453 221.991 388.436 221.947 388.427C221.904 388.418 221.859 388.417 221.815 388.426C221.771 388.435 221.73 388.452 221.693 388.477L218.414 390.613C218.376 390.637 218.343 390.668 218.317 390.704C218.291 390.741 218.273 390.782 218.263 390.826C218.253 390.869 218.252 390.915 218.26 390.959C218.268 391.003 218.285 391.045 218.31 391.082L220.54 394.685C220.568 394.725 220.604 394.759 220.646 394.784C220.687 394.809 220.734 394.826 220.782 394.832C220.83 394.838 220.879 394.834 220.926 394.821C220.973 394.807 221.016 394.783 221.053 394.752Z" fill="#464A5F"/>
<path d="M217.827 390.062L221.15 387.732C221.222 387.679 221.271 387.599 221.286 387.511C221.302 387.422 221.282 387.331 221.232 387.256L218.942 383.847C218.889 383.774 218.811 383.723 218.723 383.705C218.635 383.687 218.543 383.703 218.466 383.75L215.187 385.894C215.112 385.943 215.059 386.019 215.039 386.107C215.02 386.195 215.035 386.287 215.083 386.363L217.313 389.958C217.336 390.003 217.369 390.042 217.409 390.072C217.449 390.103 217.496 390.124 217.545 390.134C217.594 390.144 217.645 390.143 217.694 390.13C217.743 390.118 217.788 390.095 217.827 390.062Z" fill="#464A5F"/>
<path d="M214.168 384.8L217.492 382.47C217.564 382.417 217.612 382.339 217.628 382.252C217.643 382.164 217.623 382.074 217.574 382.001L215.284 378.592C215.232 378.517 215.154 378.465 215.065 378.447C214.977 378.429 214.884 378.446 214.808 378.495L211.529 380.631C211.455 380.681 211.403 380.758 211.384 380.845C211.365 380.932 211.379 381.023 211.425 381.1L213.655 384.703C213.678 384.748 213.711 384.788 213.751 384.818C213.791 384.849 213.838 384.87 213.888 384.879C213.938 384.888 213.989 384.886 214.038 384.872C214.086 384.859 214.131 384.834 214.168 384.8Z" fill="#464A5F"/>
<path d="M210.652 379.716L213.968 377.408C214.005 377.383 214.036 377.352 214.061 377.315C214.085 377.278 214.102 377.236 214.11 377.192C214.119 377.149 214.118 377.104 214.109 377.06C214.1 377.017 214.082 376.976 214.057 376.939L211.76 373.53C211.71 373.456 211.633 373.404 211.545 373.386C211.457 373.368 211.366 373.385 211.291 373.433L208.012 375.57C207.937 375.618 207.884 375.695 207.864 375.783C207.845 375.87 207.861 375.962 207.908 376.038L210.139 379.641C210.164 379.684 210.199 379.72 210.24 379.748C210.282 379.775 210.328 379.793 210.378 379.8C210.427 379.807 210.477 379.804 210.524 379.789C210.572 379.774 210.615 379.749 210.652 379.716Z" fill="#464A5F"/>
<path d="M241.083 412.237L243.76 410.368C243.915 410.256 244.021 410.088 244.056 409.9C244.09 409.711 244.051 409.516 243.946 409.356L242.072 406.58C241.962 406.424 241.797 406.316 241.61 406.279C241.424 406.241 241.23 406.277 241.068 406.379L238.429 408.098C238.271 408.206 238.16 408.37 238.12 408.557C238.08 408.744 238.113 408.94 238.213 409.103L240.05 412.028C240.104 412.11 240.173 412.18 240.255 412.235C240.336 412.29 240.427 412.328 240.523 412.348C240.619 412.367 240.718 412.367 240.814 412.348C240.91 412.329 241.002 412.291 241.083 412.237Z" fill="#464A5F"/>
<path d="M237.418 406.937L240.087 405.061C240.242 404.95 240.348 404.784 240.384 404.597C240.42 404.41 240.383 404.217 240.28 404.056L238.407 401.28C238.297 401.124 238.132 401.016 237.945 400.979C237.758 400.941 237.564 400.977 237.403 401.079L234.764 402.798C234.606 402.905 234.495 403.067 234.454 403.253C234.413 403.438 234.444 403.632 234.541 403.796L236.384 406.728C236.438 406.81 236.508 406.881 236.589 406.935C236.671 406.99 236.762 407.028 236.858 407.048C236.954 407.067 237.053 407.067 237.149 407.048C237.245 407.029 237.336 406.991 237.418 406.937Z" fill="#464A5F"/>
<path d="M233.752 401.637L236.414 399.739C236.569 399.627 236.675 399.459 236.71 399.27C236.745 399.082 236.705 398.887 236.6 398.727L234.741 396.017C234.633 395.86 234.468 395.751 234.281 395.712C234.094 395.673 233.9 395.708 233.737 395.809L231.098 397.528C230.939 397.635 230.827 397.799 230.785 397.986C230.743 398.173 230.776 398.369 230.875 398.533L232.711 401.466C232.768 401.546 232.84 401.614 232.924 401.666C233.007 401.717 233.1 401.752 233.196 401.768C233.293 401.784 233.392 401.781 233.487 401.758C233.583 401.736 233.673 401.695 233.752 401.637Z" fill="#464A5F"/>
<path d="M230.087 396.33L232.756 394.454C232.909 394.342 233.014 394.175 233.048 393.988C233.083 393.802 233.045 393.609 232.942 393.449L231.076 390.673C230.966 390.517 230.801 390.409 230.614 390.372C230.427 390.334 230.233 390.37 230.072 390.472L227.433 392.191C227.275 392.297 227.164 392.46 227.123 392.645C227.082 392.831 227.113 393.025 227.21 393.188L229.046 396.121C229.1 396.204 229.17 396.275 229.252 396.331C229.334 396.386 229.426 396.425 229.523 396.444C229.62 396.464 229.719 396.463 229.816 396.444C229.913 396.424 230.005 396.385 230.087 396.33Z" fill="#464A5F"/>
<path d="M226.087 391.268L229.403 388.938C229.44 388.913 229.472 388.88 229.496 388.843C229.521 388.805 229.538 388.763 229.546 388.719C229.554 388.674 229.554 388.629 229.545 388.585C229.535 388.541 229.517 388.499 229.492 388.462L227.195 385.053C227.145 384.978 227.068 384.927 226.98 384.909C226.893 384.891 226.801 384.908 226.726 384.956L223.44 387.092C223.402 387.117 223.37 387.149 223.344 387.187C223.319 387.224 223.301 387.266 223.293 387.31C223.284 387.355 223.283 387.4 223.292 387.445C223.301 387.489 223.318 387.531 223.343 387.569L225.574 391.164C225.598 391.208 225.631 391.246 225.671 391.276C225.711 391.305 225.757 391.326 225.806 391.336C225.855 391.346 225.905 391.345 225.954 391.333C226.002 391.321 226.048 391.299 226.087 391.268Z" fill="#464A5F"/>
<path d="M222.838 386.571L226.154 384.241C226.191 384.217 226.222 384.185 226.247 384.148C226.271 384.111 226.288 384.069 226.296 384.026C226.305 383.982 226.304 383.937 226.295 383.894C226.286 383.85 226.268 383.809 226.243 383.772L223.953 380.386C223.902 380.311 223.823 380.259 223.735 380.241C223.646 380.223 223.554 380.24 223.477 380.289L220.198 382.425C220.124 382.475 220.073 382.552 220.053 382.639C220.034 382.726 220.048 382.817 220.094 382.894L222.325 386.497C222.351 386.538 222.386 386.574 222.428 386.6C222.469 386.627 222.515 386.645 222.564 386.652C222.613 386.659 222.663 386.655 222.71 386.641C222.757 386.627 222.801 386.604 222.838 386.571Z" fill="#464A5F"/>
<path d="M219.202 381.316L222.525 378.986C222.598 378.932 222.647 378.853 222.662 378.764C222.677 378.676 222.657 378.584 222.607 378.51L220.317 375.108C220.266 375.033 220.188 374.981 220.099 374.963C220.01 374.945 219.918 374.962 219.841 375.011L216.563 377.147C216.487 377.196 216.434 377.273 216.415 377.361C216.395 377.448 216.411 377.54 216.458 377.616L218.689 381.219C218.713 381.262 218.747 381.3 218.788 381.329C218.828 381.358 218.874 381.377 218.923 381.387C218.972 381.396 219.022 381.394 219.07 381.382C219.118 381.37 219.163 381.347 219.202 381.316Z" fill="#464A5F"/>
<path d="M215.685 376.224L219.001 373.895C219.038 373.869 219.07 373.837 219.095 373.799C219.119 373.761 219.136 373.719 219.145 373.675C219.153 373.631 219.152 373.585 219.143 373.541C219.134 373.497 219.116 373.455 219.09 373.418L216.793 370.016C216.769 369.979 216.738 369.947 216.701 369.921C216.664 369.896 216.623 369.878 216.579 369.869C216.536 369.86 216.491 369.86 216.447 369.869C216.403 369.877 216.362 369.895 216.325 369.92L213.038 372.056C213.001 372.08 212.969 372.111 212.943 372.148C212.918 372.185 212.9 372.226 212.891 372.27C212.882 372.314 212.882 372.359 212.891 372.403C212.9 372.446 212.917 372.488 212.942 372.525L215.172 376.128C215.198 376.17 215.232 376.206 215.272 376.235C215.313 376.263 215.359 376.282 215.407 376.291C215.455 376.3 215.505 376.299 215.553 376.288C215.601 376.276 215.646 376.255 215.685 376.224Z" fill="#464A5F"/>
<path d="M207.127 374.624L210.451 372.294C210.523 372.241 210.572 372.161 210.587 372.072C210.602 371.984 210.583 371.893 210.533 371.818L208.243 368.409C208.191 368.334 208.113 368.282 208.024 368.264C207.936 368.246 207.843 368.263 207.767 368.312L204.488 370.448C204.414 370.498 204.362 370.575 204.343 370.662C204.324 370.749 204.338 370.841 204.384 370.917L206.614 374.52C206.637 374.565 206.67 374.604 206.71 374.634C206.75 374.665 206.797 374.686 206.846 374.696C206.895 374.706 206.946 374.705 206.995 374.692C207.044 374.68 207.089 374.657 207.127 374.624Z" fill="#464A5F"/>
<path d="M203.611 369.533L206.927 367.203C206.964 367.177 206.996 367.145 207.02 367.107C207.045 367.07 207.062 367.027 207.07 366.983C207.078 366.939 207.078 366.893 207.069 366.849C207.059 366.805 207.041 366.764 207.016 366.726L204.719 363.317C204.669 363.243 204.592 363.191 204.504 363.173C204.416 363.155 204.325 363.172 204.25 363.221L200.971 365.357C200.933 365.381 200.9 365.413 200.874 365.45C200.848 365.487 200.829 365.529 200.82 365.573C200.81 365.618 200.809 365.663 200.817 365.708C200.825 365.753 200.842 365.795 200.867 365.833L203.098 369.429C203.121 369.473 203.153 369.512 203.193 369.543C203.233 369.573 203.28 369.594 203.329 369.604C203.378 369.614 203.429 369.613 203.478 369.601C203.527 369.588 203.572 369.565 203.611 369.533Z" fill="#464A5F"/>
<path d="M224.674 377.52L227.804 375.324C227.901 375.254 227.967 375.148 227.988 375.03C228.009 374.912 227.983 374.79 227.916 374.691L225.752 371.453C225.684 371.354 225.58 371.285 225.462 371.261C225.344 371.237 225.221 371.261 225.12 371.327L222.027 373.336C221.927 373.403 221.856 373.507 221.831 373.625C221.806 373.744 221.829 373.867 221.893 373.969L224.027 377.363C224.058 377.418 224.099 377.466 224.149 377.503C224.199 377.541 224.256 377.568 224.317 377.583C224.377 377.598 224.44 377.6 224.502 377.589C224.564 377.578 224.622 377.554 224.674 377.52Z" fill="#464A5F"/>
<path d="M221.157 372.428L224.28 370.233C224.33 370.199 224.372 370.156 224.405 370.106C224.437 370.056 224.46 370 224.471 369.941C224.482 369.882 224.481 369.822 224.469 369.763C224.457 369.705 224.433 369.649 224.399 369.6L222.228 366.384C222.161 366.285 222.059 366.216 221.942 366.193C221.825 366.169 221.703 366.192 221.604 366.258L218.511 368.267C218.41 368.334 218.339 368.438 218.313 368.555C218.287 368.673 218.307 368.797 218.369 368.9L220.503 372.302C220.538 372.354 220.582 372.398 220.633 372.432C220.685 372.466 220.743 372.49 220.804 372.502C220.865 372.514 220.927 372.513 220.988 372.501C221.049 372.488 221.106 372.464 221.157 372.428Z" fill="#464A5F"/>
<path d="M217.633 367.337L220.763 365.104C220.86 365.035 220.926 364.931 220.946 364.814C220.967 364.697 220.942 364.577 220.875 364.478L218.711 361.255C218.643 361.156 218.539 361.087 218.421 361.063C218.303 361.04 218.18 361.063 218.079 361.129L214.986 363.139C214.886 363.205 214.815 363.309 214.79 363.428C214.765 363.546 214.788 363.669 214.852 363.771L216.986 367.173C217.016 367.228 217.057 367.277 217.107 367.315C217.156 367.354 217.213 367.382 217.274 367.397C217.335 367.412 217.398 367.415 217.46 367.405C217.522 367.394 217.581 367.371 217.633 367.337Z" fill="#464A5F"/>
<path d="M214.012 362.32L217.336 359.99C217.408 359.936 217.457 359.857 217.472 359.768C217.487 359.68 217.468 359.588 217.418 359.514L215.128 356.105C215.075 356.031 214.996 355.981 214.908 355.964C214.819 355.947 214.727 355.966 214.652 356.015L211.373 358.152C211.298 358.2 211.244 358.277 211.225 358.365C211.205 358.452 211.221 358.544 211.269 358.62L213.499 362.223C213.524 362.266 213.558 362.304 213.598 362.333C213.638 362.362 213.685 362.381 213.733 362.391C213.782 362.4 213.833 362.398 213.881 362.386C213.929 362.374 213.974 362.351 214.012 362.32Z" fill="#464A5F"/>
<path d="M248.31 422.569L251.18 420.581C251.334 420.468 251.439 420.299 251.472 420.111C251.505 419.922 251.465 419.728 251.359 419.569L245.849 411.649C245.739 411.496 245.574 411.391 245.389 411.355C245.204 411.32 245.013 411.355 244.853 411.455L241.923 413.361C241.842 413.416 241.773 413.486 241.719 413.567C241.665 413.649 241.627 413.74 241.609 413.836C241.59 413.933 241.591 414.031 241.61 414.127C241.63 414.223 241.668 414.314 241.723 414.396L247.306 422.383C247.418 422.536 247.585 422.641 247.771 422.675C247.958 422.71 248.151 422.672 248.31 422.569Z" fill="#464A5F"/>
<path d="M212.273 371.118L215.76 368.647C215.797 368.622 215.829 368.589 215.853 368.551C215.878 368.513 215.894 368.471 215.902 368.426C215.91 368.382 215.908 368.336 215.898 368.292C215.887 368.248 215.868 368.207 215.841 368.171L209.893 359.67C209.842 359.597 209.765 359.547 209.677 359.53C209.59 359.514 209.499 359.532 209.425 359.581L205.841 361.911C205.802 361.935 205.769 361.968 205.743 362.006C205.717 362.044 205.699 362.087 205.69 362.132C205.681 362.177 205.681 362.224 205.691 362.269C205.7 362.314 205.718 362.357 205.745 362.394L211.789 371.036C211.843 371.111 211.924 371.161 212.014 371.176C212.105 371.192 212.197 371.171 212.273 371.118Z" fill="#464A5F"/>
<path d="M238.942 398.161L242.251 395.928C242.325 395.877 242.377 395.798 242.395 395.709C242.413 395.62 242.396 395.528 242.347 395.451L229.633 376.582C229.609 376.544 229.578 376.512 229.541 376.487C229.505 376.462 229.463 376.444 229.419 376.435C229.376 376.426 229.331 376.426 229.287 376.434C229.243 376.443 229.202 376.46 229.165 376.485L225.596 378.808C225.557 378.832 225.524 378.865 225.498 378.903C225.472 378.941 225.454 378.984 225.445 379.029C225.436 379.074 225.436 379.121 225.446 379.166C225.455 379.211 225.473 379.254 225.499 379.291L238.466 398.109C238.523 398.178 238.605 398.222 238.693 398.232C238.782 398.242 238.872 398.216 238.942 398.161Z" fill="#464A5F"/>
<path opacity="0.1" d="M250.303 398.25L264.868 388.216C265.273 387.939 265.551 387.512 265.643 387.03C265.735 386.547 265.633 386.048 265.359 385.641L246.823 358.003C246.686 357.799 246.509 357.625 246.305 357.489C246.1 357.354 245.87 357.261 245.629 357.214C245.388 357.168 245.14 357.17 244.9 357.22C244.66 357.269 244.431 357.366 244.228 357.504L229.247 367.731C229.043 367.869 228.869 368.046 228.734 368.251C228.599 368.456 228.506 368.686 228.46 368.928C228.415 369.17 228.417 369.418 228.468 369.658C228.519 369.899 228.617 370.127 228.756 370.329L247.723 397.774C247.861 397.975 248.037 398.147 248.241 398.28C248.446 398.413 248.674 398.504 248.914 398.549C249.154 398.593 249.4 398.589 249.638 398.538C249.876 398.487 250.102 398.389 250.303 398.25Z" fill="black"/>
<path d="M250.214 398.712L264.779 388.678C265.182 388.399 265.459 387.972 265.551 387.491C265.643 387.009 265.542 386.51 265.269 386.102L246.719 358.501C246.583 358.296 246.407 358.12 246.203 357.984C245.998 357.847 245.769 357.753 245.527 357.706C245.286 357.659 245.038 357.66 244.797 357.71C244.556 357.759 244.327 357.856 244.124 357.995L229.157 368.193C228.954 368.33 228.78 368.507 228.645 368.712C228.51 368.918 228.417 369.148 228.371 369.389C228.326 369.631 228.328 369.879 228.379 370.12C228.43 370.36 228.528 370.588 228.667 370.791L247.634 398.25C247.773 398.45 247.95 398.621 248.155 398.752C248.359 398.884 248.588 398.974 248.828 399.017C249.068 399.059 249.313 399.055 249.551 399.002C249.789 398.95 250.014 398.851 250.214 398.712Z" fill="#939498"/>
<path d="M226.674 460.933L233.767 439.644L186.391 371.364L179.514 392.496C179.328 393.066 179.277 393.671 179.365 394.264C179.453 394.857 179.677 395.421 180.019 395.913L225.314 461.126C225.388 461.253 225.499 461.355 225.632 461.419C225.764 461.483 225.913 461.506 226.059 461.485C226.204 461.464 226.341 461.401 226.45 461.303C226.56 461.204 226.638 461.076 226.674 460.933Z" fill="#6C63FF"/>
</svg>
