<svg width="323" height="309" viewBox="0 0 323 309" fill="none" xmlns="http://www.w3.org/2000/svg">
<g clip-path="url(#clip0)">
<rect x="288.911" y="34.2587" width="196.921" height="261.346" transform="rotate(84.6108 288.911 34.2587)" fill="#535461"/>
<path d="M269.202 139C247.978 123.16 214.737 108.179 178.002 97.8992C144.555 88.5395 111.931 84.0205 86.1343 85.1745L86 82.1794C112.104 81.0122 145.066 85.5691 178.813 95.0124C215.891 105.388 249.492 120.545 271 136.599L269.202 139Z" fill="#F2F2F2"/>
<path d="M267 151.5C267.019 165.585 264.066 179.517 258.334 192.383C257.856 193.46 257.357 194.527 256.839 195.585C248.578 212.507 235.729 226.768 219.756 236.742C203.784 246.717 185.331 252.004 166.5 252C110.996 252 66 207.004 66 151.5C66 149.174 66.0792 146.866 66.2377 144.576C66.3129 143.412 66.4102 142.254 66.5296 141.104C71.7321 90.4839 114.508 51 166.5 51C222.004 51 267 95.9963 267 151.5Z" fill="#6C63FF"/>
<path opacity="0.1" d="M259 191.949C258.519 193.019 258.018 194.08 257.497 195.13C254.547 195.447 251.441 195.677 248.18 195.821C245.481 195.94 242.702 196 239.864 196C215.068 196 185.226 191.474 154.741 183.025C120.767 173.608 90.0309 160.435 68.1918 145.933C67.4481 145.44 66.7175 144.945 66 144.45C66.0756 143.293 66.1733 142.143 66.2933 141C67.4511 141.816 68.6453 142.633 69.8757 143.451C91.4578 157.781 121.886 170.812 155.557 180.146C185.777 188.523 215.337 193.01 239.848 193.01C242.651 193.01 245.383 192.952 248.044 192.834C251.92 192.661 255.572 192.366 259 191.949Z" fill="black"/>
<path d="M239.421 194C214.662 194.001 184.861 189.437 154.422 180.92C120.497 171.428 89.8036 158.149 67.9958 143.53C45.7327 128.606 35.2932 113.901 38.6 102.123C41.9066 90.3451 58.4815 83.1985 85.271 82L85.4061 85.0107C72.8957 85.5703 62.7002 87.4266 55.103 90.528C47.5242 93.6217 42.9498 97.7965 41.5067 102.936C40.0637 108.076 41.7983 114.016 46.6622 120.592C51.5381 127.183 59.282 134.059 69.6786 141.028C91.2272 155.473 121.612 168.61 155.236 178.018C185.413 186.462 214.928 190.986 239.406 190.987C242.203 190.987 244.93 190.928 247.588 190.809C260.099 190.249 270.294 188.393 277.892 185.292C285.471 182.198 290.045 178.023 291.488 172.883C294.079 163.654 286.249 151.662 269.438 139.116L271.246 136.702C279.896 143.158 286.3 149.522 290.278 155.617C294.544 162.15 295.929 168.234 294.395 173.697C291.088 185.475 274.513 192.621 247.724 193.82C245.028 193.94 242.255 194 239.421 194Z" fill="#F2F2F2"/>
<path d="M169 33C169.552 33 170 32.3284 170 31.5C170 30.6716 169.552 30 169 30C168.448 30 168 30.6716 168 31.5C168 32.3284 168.448 33 169 33Z" fill="#F2F2F2"/>
<path d="M35.7718 85.5549C36.3605 85.5549 36.8377 85.0778 36.8377 84.4893C36.8377 83.9007 36.3605 83.4236 35.7718 83.4236C35.1831 83.4236 34.7059 83.9007 34.7059 84.4893C34.7059 85.0778 35.1831 85.5549 35.7718 85.5549Z" fill="#F2F2F2"/>
<path d="M31.8633 157.31C32.452 157.31 32.9293 156.833 32.9293 156.244C32.9293 155.656 32.452 155.179 31.8633 155.179C31.2746 155.179 30.7974 155.656 30.7974 156.244C30.7974 156.833 31.2746 157.31 31.8633 157.31Z" fill="#F2F2F2"/>
<path d="M247.5 39C247.776 39 248 38.7761 248 38.5C248 38.2239 247.776 38 247.5 38C247.224 38 247 38.2239 247 38.5C247 38.7761 247.224 39 247.5 39Z" fill="#F2F2F2"/>
<path d="M287.741 113.618C288.134 113.618 288.452 113.299 288.452 112.907C288.452 112.515 288.134 112.197 287.741 112.197C287.349 112.197 287.031 112.515 287.031 112.907C287.031 113.299 287.349 113.618 287.741 113.618Z" fill="#F2F2F2"/>
<path d="M86 56C86.5523 56 87 55.7761 87 55.5C87 55.2239 86.5523 55 86 55C85.4477 55 85 55.2239 85 55.5C85 55.7761 85.4477 56 86 56Z" fill="#F2F2F2"/>
<path d="M285.254 136.707C285.646 136.707 285.964 136.389 285.964 135.997C285.964 135.604 285.646 135.286 285.254 135.286C284.861 135.286 284.543 135.604 284.543 135.997C284.543 136.389 284.861 136.707 285.254 136.707Z" fill="#F2F2F2"/>
<path d="M40.3907 208.107C40.7832 208.107 41.1013 207.789 41.1013 207.396C41.1013 207.004 40.7832 206.686 40.3907 206.686C39.9983 206.686 39.6801 207.004 39.6801 207.396C39.6801 207.789 39.9983 208.107 40.3907 208.107Z" fill="#F2F2F2"/>
<path d="M67 246C67.5523 246 68 245.552 68 245C68 244.448 67.5523 244 67 244C66.4477 244 66 244.448 66 245C66 245.552 66.4477 246 67 246Z" fill="#F2F2F2"/>
<path d="M142 -0.817423H141.212V-2H140.789V-0.817423H140V-0.182577H140.789V1H141.212V-0.182577H142V-0.817423Z" fill="#F2F2F2"/>
<path d="M248 260.788H246.817V260H246.183V260.788H245V261.212H246.183V262H246.817V261.212H248V260.788Z" fill="#F2F2F2"/>
<path d="M315.755 236.255H314.775V235.275H314.249V236.255H313.268V236.781H314.249V237.761H314.775V236.781H315.755V236.255Z" fill="#F2F2F2"/>
<path d="M168.5 81C173.194 81 177 77.1944 177 72.5C177 67.8056 173.194 64 168.5 64C163.806 64 160 67.8056 160 72.5C160 77.1944 163.806 81 168.5 81Z" fill="#3F3D56"/>
<path d="M103.5 143C108.194 143 112 139.194 112 134.5C112 129.806 108.194 126 103.5 126C98.8056 126 95 129.806 95 134.5C95 139.194 98.8056 143 103.5 143Z" fill="#3F3D56"/>
<path d="M196.5 228C201.194 228 205 224.194 205 219.5C205 214.806 201.194 211 196.5 211C191.806 211 188 214.806 188 219.5C188 224.194 191.806 228 196.5 228Z" fill="#3F3D56"/>
<path d="M168.5 156C173.194 156 177 152.194 177 147.5C177 142.806 173.194 139 168.5 139C163.806 139 160 142.806 160 147.5C160 152.194 163.806 156 168.5 156Z" fill="#3F3D56"/>
<path d="M107.5 203C112.194 203 116 199.194 116 194.5C116 189.806 112.194 186 107.5 186C102.806 186 99 189.806 99 194.5C99 199.194 102.806 203 107.5 203Z" fill="#3F3D56"/>
<path d="M213.5 111C218.194 111 222 107.194 222 102.5C222 97.8056 218.194 94 213.5 94C208.806 94 205 97.8056 205 102.5C205 107.194 208.806 111 213.5 111Z" fill="#3F3D56"/>
<path d="M241.5 168C246.194 168 250 164.194 250 159.5C250 154.806 246.194 151 241.5 151C236.806 151 233 154.806 233 159.5C233 164.194 236.806 168 241.5 168Z" fill="#3F3D56"/>
<path d="M168 122C174.075 122 179 117.075 179 111C179 104.925 174.075 100 168 100C161.925 100 157 104.925 157 111C157 117.075 161.925 122 168 122Z" fill="white"/>
<path d="M168 95C163.757 95 159.687 96.659 156.686 99.612C153.686 102.565 152 106.57 152 110.746C152 119.443 168 148 168 148C168 148 184 119.443 184 110.746C184 106.57 182.314 102.565 179.314 99.612C176.313 96.659 172.243 95 168 95ZM168 118.428C166.534 118.428 165.1 118 163.881 117.198C162.661 116.396 161.711 115.256 161.15 113.923C160.589 112.59 160.442 111.122 160.728 109.707C161.014 108.291 161.72 106.991 162.757 105.971C163.794 104.95 165.115 104.255 166.553 103.974C167.992 103.692 169.483 103.836 170.837 104.389C172.192 104.941 173.35 105.876 174.165 107.076C174.98 108.276 175.415 109.687 175.415 111.13C175.415 112.089 175.223 113.038 174.85 113.923C174.478 114.808 173.931 115.613 173.243 116.29C172.554 116.968 171.737 117.505 170.837 117.872C169.938 118.239 168.974 118.428 168 118.428V118.428Z" fill="#FF6584"/>
<path d="M107.5 170C113.851 170 119 164.851 119 158.5C119 152.149 113.851 147 107.5 147C101.149 147 96 152.149 96 158.5C96 164.851 101.149 170 107.5 170Z" fill="white"/>
<path d="M107.5 142C103.389 142 99.4467 143.659 96.5399 146.612C93.633 149.565 92 153.57 92 157.746C92 166.443 107.5 195 107.5 195C107.5 195 123 166.443 123 157.746C123 153.57 121.367 149.565 118.46 146.612C115.553 143.659 111.611 142 107.5 142ZM107.5 165.428C106.079 165.428 104.691 165 103.509 164.198C102.328 163.396 101.407 162.256 100.864 160.923C100.32 159.59 100.178 158.122 100.455 156.707C100.732 155.291 101.416 153.991 102.421 152.971C103.425 151.95 104.705 151.255 106.099 150.974C107.492 150.692 108.936 150.836 110.249 151.389C111.561 151.941 112.683 152.876 113.472 154.076C114.262 155.276 114.683 156.687 114.683 158.13C114.683 159.089 114.497 160.038 114.136 160.923C113.775 161.808 113.246 162.613 112.579 163.29C111.912 163.968 111.12 164.505 110.249 164.872C109.377 165.239 108.443 165.428 107.5 165.428Z" fill="#FF6584"/>
<path d="M241.5 135C247.851 135 253 130.075 253 124C253 117.925 247.851 113 241.5 113C235.149 113 230 117.925 230 124C230 130.075 235.149 135 241.5 135Z" fill="white"/>
<path d="M241.5 108C237.389 108 233.447 109.659 230.54 112.612C227.633 115.565 226 119.57 226 123.746C226 132.443 241.5 161 241.5 161C241.5 161 257 132.443 257 123.746C257 119.57 255.367 115.565 252.46 112.612C249.553 109.659 245.611 108 241.5 108ZM241.5 131.428C240.079 131.428 238.691 131 237.509 130.198C236.328 129.396 235.408 128.256 234.864 126.923C234.32 125.59 234.178 124.122 234.455 122.707C234.732 121.291 235.416 119.991 236.421 118.971C237.425 117.95 238.705 117.255 240.099 116.974C241.492 116.692 242.936 116.836 244.249 117.389C245.561 117.941 246.683 118.876 247.472 120.076C248.262 121.276 248.683 122.687 248.683 124.13C248.683 126.066 247.926 127.922 246.579 129.29C245.232 130.659 243.405 131.428 241.5 131.428Z" fill="#FF6584"/>
<path d="M168 47C174.075 47 179 42.0751 179 36C179 29.9249 174.075 25 168 25C161.925 25 157 29.9249 157 36C157 42.0751 161.925 47 168 47Z" fill="white"/>
<path d="M168 20C163.757 20 159.687 21.659 156.686 24.612C153.686 27.565 152 31.5702 152 35.7464C152 44.4429 168 73 168 73C168 73 184 44.4429 184 35.7464C184 31.5702 182.314 27.565 179.314 24.612C176.313 21.659 172.243 20 168 20ZM168 43.4275C166.534 43.4275 165.1 42.9996 163.881 42.1978C162.661 41.3959 161.711 40.2563 161.15 38.9229C160.589 37.5895 160.442 36.1223 160.728 34.7068C161.014 33.2913 161.72 31.9911 162.757 30.9706C163.794 29.9501 165.115 29.2551 166.553 28.9735C167.992 28.692 169.483 28.8365 170.837 29.3888C172.192 29.9411 173.35 30.8764 174.165 32.0764C174.98 33.2764 175.415 34.6872 175.415 36.1304C175.415 38.0657 174.633 39.9218 173.243 41.2903C171.852 42.6587 169.967 43.4275 168 43.4275Z" fill="#FF6584"/>
<path d="M196.5 195C202.851 195 208 190.075 208 184C208 177.925 202.851 173 196.5 173C190.149 173 185 177.925 185 184C185 190.075 190.149 195 196.5 195Z" fill="white"/>
<path d="M196.5 168C192.389 168 188.447 169.659 185.54 172.612C182.633 175.565 181 179.57 181 183.746C181 192.443 196.5 221 196.5 221C196.5 221 212 192.443 212 183.746C212 181.679 211.599 179.631 210.82 177.72C210.041 175.81 208.899 174.074 207.46 172.612C206.021 171.15 204.312 169.99 202.432 169.199C200.551 168.407 198.535 168 196.5 168ZM196.5 191.428C195.079 191.428 193.691 191 192.509 190.198C191.328 189.396 190.407 188.256 189.864 186.923C189.32 185.59 189.178 184.122 189.455 182.707C189.732 181.291 190.416 179.991 191.421 178.971C192.425 177.95 193.705 177.255 195.099 176.974C196.492 176.692 197.936 176.836 199.249 177.389C200.561 177.941 201.683 178.876 202.472 180.076C203.262 181.276 203.683 182.687 203.683 184.13C203.683 186.066 202.926 187.922 201.579 189.29C200.232 190.659 198.405 191.428 196.5 191.428Z" fill="#FF6584"/>
<path d="M103 109C109.075 109 114 104.075 114 98C114 91.9249 109.075 87 103 87C96.9249 87 92 91.9249 92 98C92 104.075 96.9249 109 103 109Z" fill="white"/>
<path d="M103 82C98.7566 82 94.6869 83.659 91.6863 86.612C88.6857 89.565 87 93.5702 87 97.7464C87 106.443 103 135 103 135C103 135 119 106.443 119 97.7464C119 95.6785 118.586 93.6309 117.782 91.7205C116.978 89.8101 115.799 88.0742 114.314 86.612C112.828 85.1498 111.064 83.9899 109.123 83.1986C107.182 82.4073 105.101 82 103 82ZM103 105.428C101.534 105.428 100.1 105 98.8806 104.198C97.6613 103.396 96.711 102.256 96.1498 100.923C95.5886 99.5895 95.4417 98.1223 95.7278 96.7068C96.0139 95.2913 96.7201 93.9911 97.7571 92.9706C98.794 91.9501 100.115 91.2551 101.553 90.9735C102.992 90.692 104.483 90.8365 105.837 91.3888C107.192 91.9411 108.35 92.8763 109.165 94.0764C109.98 95.2764 110.415 96.6872 110.415 98.1304C110.415 100.066 109.633 101.922 108.243 103.29C106.852 104.659 104.967 105.428 103 105.428Z" fill="#FF6584"/>
<path d="M213.5 78C219.851 78 225 73.0751 225 67C225 60.9249 219.851 56 213.5 56C207.149 56 202 60.9249 202 67C202 73.0751 207.149 78 213.5 78Z" fill="white"/>
<path d="M213.5 51C209.389 51 205.447 52.659 202.54 55.612C199.633 58.565 198 62.5702 198 66.7464C198 75.4429 213.5 104 213.5 104C213.5 104 229 75.4429 229 66.7464C229 62.5702 227.367 58.565 224.46 55.612C221.553 52.659 217.611 51 213.5 51ZM213.5 74.4275C212.079 74.4275 210.691 73.9996 209.509 73.1978C208.328 72.3959 207.408 71.2563 206.864 69.9229C206.32 68.5895 206.178 67.1223 206.455 65.7068C206.732 64.2913 207.416 62.9911 208.421 61.9706C209.425 60.9501 210.705 60.2551 212.099 59.9735C213.492 59.692 214.936 59.8365 216.249 60.3888C217.561 60.9411 218.683 61.8764 219.472 63.0764C220.262 64.2764 220.683 65.6872 220.683 67.1304C220.683 69.0657 219.926 70.9218 218.579 72.2903C217.232 73.6587 215.405 74.4275 213.5 74.4275Z" fill="#FF6584"/>
</g>
<defs>
<clipPath id="clip0">
<rect width="323" height="309" fill="white"/>
</clipPath>
</defs>
</svg>
